<?xml version="1.0" encoding="utf-8"?>
<!-- Generator: Adobe Illustrator 22.1.0, SVG Export Plug-In . SVG Version: 6.00 Build 0)  -->
<svg version="1.1" id="Layer_1" xmlns="http://www.w3.org/2000/svg" xmlns:xlink="http://www.w3.org/1999/xlink" x="0px" y="0px"
	 viewBox="0 0 185 124" enable-background="new 0 0 185 124" xml:space="preserve">
<g id="Layer_2_1_" display="none">
	<rect x="-0.2" display="inline" width="184.6" height="124.1"/>
</g>
<g id="Layer_1_1_">
	<g id="Шар_1">
		<g display="none">
			<path display="inline" d="M97.3-0.1L67.2,50.6l31.1,53.5H62.1L47.8,78.8l-12,25.2H0.2L32,51.4L1.9-0.1h35.9l13.5,23.6L62.1-0.1
				H97.3z"/>
			<path display="inline" d="M183.7-0.1l-30.1,50.7l31.1,53.5h-36.2l-14.2-25.2l-12,25.2H86.7l31.8-52.6L88.4-0.1h35.9l13.5,23.6
				l10.9-23.6C148.6-0.1,183.7-0.1,183.7-0.1z"/>
		</g>
		<g>
			<path d="M97.7,0.1L67.6,50.7l31.1,53.5H62.5L48.3,79l-12,25.2H0.7l31.8-52.6L2.4,0.1h35.9l13.5,23.6L62.5,0.1H97.7z"/>
			<path d="M184.2,0.1l-30.1,50.6l31.1,53.5H149L134.8,79l-12,25.2H87.1l31.8-52.6L88.8,0.1h35.9l13.5,23.6L149,0.1H184.2z"/>
		</g>
		<circle fill="#F9B76E" cx="91.6" cy="67.1" r="35.8"/>
		<g>
			<path d="M128.5,64.5c-0.1-0.6-0.1-1.3-0.2-2c0-0.3-0.1-0.6-0.1-0.8c-0.1-1-0.4-2.2-0.7-3.2c-0.1-0.3-0.2-0.5-0.2-0.8
				c-0.2-0.7-0.4-1.3-0.6-1.9c-0.3-0.9-0.8-2.1-1.2-3l-0.2-0.3c-0.3-0.7-0.7-1.5-1.1-2.2c-0.5-0.9-1.2-2-1.7-2.8s-1.2-1.7-1.6-2.2
				c-0.6-0.7-1.4-1.7-2.2-2.5c-0.5-0.6-1.3-1.3-1.9-1.9c-0.7-0.6-1.7-1.5-2.6-2.2c-1.2-0.9-2.8-1.9-4.1-2.7l-0.1-0.1
				c-0.8-0.4-1.9-1-2.8-1.5c-0.5-0.2-1.3-0.6-1.9-0.8s-1.3-0.5-1.9-0.7c-0.4-0.1-1.1-0.3-1.6-0.5c-0.7-0.2-1.6-0.4-2.4-0.6
				c0,0-1.3-0.3-3-0.5C95,31.1,93.5,31,92,31c-1.4,0-2.4,0.1-3,0.1c-1,0.1-2.4,0.3-3,0.4c-0.8,0.1-1.9,0.4-2.5,0.5
				c-0.3,0.1-0.8,0.2-1.3,0.3c-0.4,0.1-1.7,0.5-2.7,0.9h-0.1c-0.5,0.2-1,0.4-1.5,0.6c-0.6,0.2-1.3,0.6-1.9,0.9
				c-0.6,0.3-1.3,0.7-1.9,1c-0.9,0.5-2,1.2-2.8,1.8c-0.6,0.4-1.4,1-2,1.5c-0.8,0.7-1.8,1.5-2.4,2.1c-1.2,1.1-2.6,2.8-3.6,4
				c-0.5,0.6-1.1,1.5-1.9,2.6c-0.4,0.7-1,1.6-1.4,2.4s-1,1.9-1.4,2.8c-0.2,0.5-0.5,1.2-0.7,1.8c-0.1,0.3-0.2,0.5-0.3,0.8
				c-0.3,0.9-0.7,2.1-0.9,3c-0.2,0.6-0.3,1.3-0.4,2c-0.1,0.3-0.1,0.6-0.2,0.8c-0.1,0.7-0.2,1.5-0.3,2.3c0,0.3-0.1,0.6-0.1,0.9
				c-0.2,1.7-0.2,3.9-0.1,5.4c0.1,1.8,0.5,4.2,0.8,5.8c0.2,1,0.5,2.2,0.8,3.1c0.1,0.2,0.2,0.5,0.3,0.8c0.2,0.6,0.5,1.3,0.7,1.8
				c0.3,0.8,0.9,2,1.3,2.9c0.2,0.4,0.8,1.6,1.4,2.4c0.4,0.7,1,1.5,1.5,2.2l0.3,0.5c0.6,0.8,1.5,1.9,2.2,2.7c1.1,1.2,2.6,2.7,3.8,3.7
				c0.8,0.7,2.1,1.6,3.1,2.3c0.6,0.4,1.4,0.9,2.1,1.3c0.8,0.5,2,1.1,2.8,1.5c1.7,0.8,2.3,1,3.7,1.5c0,0,1.4,0.5,2.9,0.8
				c0.5,0.1,1.8,0.4,3.3,0.7c1.8,0.3,3.6,0.4,5.4,0.4l0,0c2.8,0,5.5-0.3,8.2-0.9c0.8-0.2,1.9-0.5,2.6-0.7c0.8-0.3,1.9-0.7,2.7-0.9
				c0.5-0.2,2.7-1.1,4.2-2c0.8-0.5,2-1.2,2.9-1.8c0.7-0.4,1.5-1,2-1.5c1.9-1.5,3.3-2.9,4.3-4c0.6-0.6,2.1-2.3,3.7-4.6
				c0.5-0.7,1.1-1.8,1.6-2.7c0.3-0.6,0.7-1.3,1-1.9l0.3-0.6c0.3-0.7,0.7-1.6,1.2-2.9c0.2-0.6,0.4-1.4,0.6-2c0.1-0.2,0.1-0.5,0.2-0.7
				c0.3-1.1,0.6-2.6,0.8-3.5c0.2-1.6,0.5-4,0.5-5.9C128.7,66.8,128.6,65.4,128.5,64.5z M127.2,65.6L127.2,65.6L127.2,65.6
				L127.2,65.6L127.2,65.6z M106.8,35.6L106.8,35.6c-0.1,0-0.2-0.1-0.4-0.1c0,0,0,0.1,0.1,0.1c-0.8-0.3-0.8-0.3-1.8-0.7
				c0.1,0,0.1,0,0.3,0.1c-0.1-0.1-0.1-0.1-0.4-0.3c0.1,0,0.1,0,0.4,0.1c-0.4-0.2-1.6-0.6-1.6-0.6h0.1c-0.1,0-0.1,0-0.2-0.1
				c0.5,0.2,1.1,0.4,1.6,0.6C105.5,35,106.2,35.4,106.8,35.6z M103.2,34.2c-0.1,0-0.3-0.1-0.7-0.1v0.1c-0.1,0-0.2,0-0.2,0v-0.1
				c-0.2-0.1-0.3-0.1-0.6-0.1c0,0,0-0.1-0.1-0.1c0.2,0,0.4,0,0.5,0c-0.1,0-0.1,0-0.2-0.1C102.3,33.9,102.8,34.1,103.2,34.2z
				 M101.2,51.8L101.2,51.8L101.2,51.8L101.2,51.8z M84.7,33.2L84.7,33.2L84.7,33.2L84.7,33.2L84.7,33.2L84.7,33.2L84.7,33.2
				L84.7,33.2C84.6,33.2,84.6,33.2,84.7,33.2L84.7,33.2z M126,77.4c-0.2,0.7-0.4,1.4-0.6,2c-0.4,1.2-0.8,2.2-1.1,2.8l-0.3,0.6
				c-0.3,0.6-0.6,1.3-0.9,1.9c-0.4,0.8-1.1,1.8-1.6,2.6c-1.5,2.2-2.9,3.9-3.5,4.5c-1.1,1.1-2.3,2.4-4.2,3.8c-0.5,0.4-1.3,1-1.9,1.4
				c-0.8,0.6-2,1.2-2.8,1.7c-1.4,0.8-3.5,1.7-4,1.9c-0.7,0.3-1.8,0.7-2.6,0.9c-0.7,0.2-1.8,0.5-2.6,0.7c-4.3,1-8.7,1.2-13.1,0.5
				c-1.5-0.2-2.7-0.5-3.2-0.6c-1.4-0.3-2.7-0.8-2.8-0.8c-1.4-0.5-2-0.7-3.6-1.4c-0.8-0.4-1.9-0.9-2.7-1.4c-0.5-0.3-1.4-0.8-2-1.2
				c-1-0.7-2.2-1.6-3-2.2c-1.2-1-2.7-2.5-3.7-3.6c-0.7-0.8-1.6-1.8-2.1-2.6l-0.3-0.5c-0.5-0.7-1-1.5-1.5-2.1
				c-0.5-0.8-1.1-1.9-1.3-2.3c-0.4-0.8-1-2-1.3-2.8c-0.2-0.5-0.4-1.2-0.7-1.8c-0.1-0.3-0.2-0.6-0.3-0.8c-0.3-0.8-0.6-1.9-0.8-2.9
				c-0.3-1.6-0.7-3.9-0.8-5.6c-0.1-1.5-0.1-3.6,0-5.2c0-0.3,0.1-0.6,0.1-0.9c0.1-0.8,0.2-1.5,0.3-2.1c0.1-0.3,0.1-0.6,0.2-0.9
				c0.1-0.7,0.3-1.3,0.4-1.9c0.2-0.9,0.5-2.1,0.9-2.9c0.1-0.2,0.2-0.5,0.3-0.8c0.2-0.6,0.5-1.3,0.7-1.8c0.4-0.9,0.9-2,1.3-2.7
				c0.4-0.8,1-1.7,1.4-2.3c0.7-1.1,1.3-2,1.8-2.5c0.8-0.9,2.3-2.7,3.5-3.8c0.6-0.6,1.6-1.4,2.3-2c0.3-0.3,0.8-0.6,1.2-0.9
				c0,0.1,0,0.1,0,0.2C71,39.7,71,39.7,71,39.7c-0.1,0-0.1,0-0.4,0.3c0.2-0.1,0.3-0.2,0.5-0.2l0,0l0,0c0.1,0,0.2-0.1,0.2-0.1l0,0
				c0.1,0,0.2,0,0.2,0c0.1-0.1,0.2-0.2,0.3-0.3c0.1-0.1,0.2-0.1,0.3-0.2l0.2-0.3c0.1-0.1,0.2-0.1,0.3-0.2c0,0,0,0-0.1,0
				c0.2-0.2,0.4-0.2,0.4-0.2l0,0c0.2-0.1,0.2-0.1,0.5-0.3c0,0-0.4,0.2-0.5,0.1c-0.1,0-0.1,0.1-0.2,0.1h-0.1
				c-0.2,0.1-0.4,0.2-0.6,0.3c-0.1,0-0.2,0.1-0.3,0.1c0.1,0,0.1-0.1,0.2-0.1c0.2-0.2,0.5-0.3,0.8-0.5c0.8-0.3,0.8-0.3,0.8-0.3
				L73.4,38c0.2,0,0.2,0,1.5-0.7H75h-0.1l0.1-0.1c-0.1,0-0.2,0-0.3,0c0-0.1,0-0.1,0.2-0.2c0.2,0.1,0.2,0.1,2.5-1.1
				c0.1-0.1,0.3-0.1,0.4-0.2c0.1,0,0.1,0,0.1,0l0,0l0,0l0,0l0,0l0,0l0,0l0,0c0.2-0.1,0.5-0.2,0.8-0.3c-0.4,0-0.7,0.2-1.1,0.3
				c0,0,0,0-0.1-0.1c-0.1,0-0.2,0.1-0.3,0.1c0.1,0,0.2-0.1,0.3-0.1c0.1,0,0.2,0,0.2,0c2-0.7,2.6-0.9,2.8-1.2c0,0,0,0-0.1,0
				c0.1,0,0.2-0.1,0.3-0.1l0,0l0,0c0.1,0,0.1,0,0.2,0c0,0,0,0,0.1,0l0,0c0.5-0.2,1.1-0.3,1.7-0.5h0.1c0,0,0,0,0.1,0s0.2,0,0.3,0
				c-0.1,0-0.2,0-0.2,0.1c0.4,0.1,0.7-0.1,1.1-0.1h0.1c0.1,0,0.1,0,0.1,0l0,0c0.1,0,0.1,0,0.5-0.1l0,0h0.1l0,0l0,0l0,0
				c-0.3,0-1.1,0.1-1.1,0.1c0.1,0,0.1,0,0.5-0.1c0.2,0,0.2,0,0.4,0c-0.1,0-0.2,0-0.2,0c0.3-0.1,0.5,0,0.8,0c-0.1,0-0.1,0-0.2,0
				c0.1,0,0.2,0,0.3,0h-0.1l0,0c-0.4,0.1-0.4,0.1-0.4,0.1c0.2,0,0.3-0.1,0.5,0c0,0-2.2,0.5-2.4,0.5h0.1l0,0
				c-0.1,0.1-0.4,0.1-0.4,0.1l0,0c-0.2,0-0.2,0-0.2,0c0.1-0.1,0.3-0.1,0.4-0.2c-0.2,0-0.4,0.2-0.7,0.1l0,0c-0.1,0-0.1,0-0.2,0
				c0.1,0,0.1,0,0.3-0.1h-0.1l0,0c-0.1,0-0.5,0.1-0.5,0.1l0,0c0.2,0,0.2,0,0.2,0c-1.5,0.6-1.5,0.6-1.7,0.7l0,0
				c0.3-0.1,0.6-0.3,0.9-0.3c-0.2,0.1-0.2,0.1-0.2,0.1c-0.1,0-0.3,0.2-0.3,0.2c0.6-0.1,1.4-0.5,1.4-0.5s0.5-0.2,0.7-0.1
				c-0.1,0-0.1,0-0.1,0.1l0,0l0,0c-0.1,0-0.1,0-0.1,0c-0.4,0.1-0.4,0.1-0.6,0.2c0.1,0,0.2,0,0.3,0c0.2,0,0.4,0,0.7-0.1l0,0l0.4-0.2
				c-0.1,0-0.1,0-0.2,0c0.1,0,0.1,0,0.4-0.1l0.4-0.2c0,0,0.2-0.1,0.3,0c0,0,0.7-0.1,0.9-0.2c0,0,0,0-0.4,0c0.3-0.1,0.7-0.1,1.1-0.2
				c0.3-0.1,0.4-0.2,0.4-0.2h-0.1c0.3-0.1,0.6,0,0.9-0.1c-0.3,0-0.7,0.2-1.1,0c0.4-0.1,0.8,0,1.2-0.1c-0.4-0.1-0.9,0-1.3,0.1
				c0.1,0,0.2-0.1,0.3-0.2c-0.1,0-0.1,0-0.2,0c-0.5,0-0.6,0-0.9,0.1c0.4-0.1,0.8-0.2,1.2-0.2c0.2,0,0.4,0,0.7,0H87
				c0.1,0,0.1,0,0.4,0c-0.2,0-0.4,0-0.6,0c-0.1,0-0.2,0-0.3,0c0.1,0,0.1,0,0.2,0s0.1,0,0.2,0l0,0c0.2,0,0.2,0,0.3,0c0,0,0,0-0.1,0
				l0,0c-0.1,0-0.1,0-0.2,0c0.1,0,0.1,0,0.2,0s0.1,0,0.2,0h-0.1c0.1,0,0.1,0,0.1,0l0,0c0.1,0,0.1,0,0.2,0l0,0h0.1c0.1,0,0.1,0,0.2,0
				c0.2,0,0.5,0,0.7,0l0,0h-0.1l0,0l0,0l0,0c0.3,0,0.7-0.1,1-0.1c0.6,0,1.6-0.1,2.9-0.1c1.4,0,2.9,0.1,4.3,0.3
				c1.7,0.2,2.9,0.5,2.9,0.5c0.6,0.1,1.2,0.3,1.7,0.4c-0.2,0-0.5,0-0.7,0l0,0l0,0l0,0l0,0l0,0l0,0l0,0l0,0c0.3,0,0.6,0.1,0.9,0.1
				c-1,0-1,0-1.8,0.1v0.1c-0.2,0-0.6,0-0.6,0c0.4,0.1,0.8,0.1,1.1,0.2c-0.1,0-0.6-0.1-0.8-0.1c0.1,0,0.1,0.1,0.2,0.1
				c-0.1,0-0.2,0-0.2,0c0.2,0.1,0.5,0.1,0.8,0.2c-0.4,0-1.6-0.2-1.6-0.2l-0.1,0.1l0.1,0.1c-0.1,0-0.1,0-0.4,0h0.1
				c-0.2,0-0.5-0.1-0.7-0.1c0.1,0,0.1,0.1,0.2,0.1c-0.2,0-0.3-0.1-0.4-0.1h0.1h-0.1l-0.1,0.1c0.6,0.2,0.6,0.2,0.7,0.3
				c-0.1,0-0.1,0-0.5,0c0.2,0.1,0.3,0.1,0.4,0.2l0,0l0,0l0,0l0,0l0,0l0,0l0,0l0,0c-0.2,0-0.2,0-0.5-0.1c0.3,0.1,0.7,0.3,1,0.4l0,0
				c-0.2-0.1-0.5-0.2-0.8-0.3c-0.2,0-0.2,0-0.4-0.1h0.1l0,0c0,0-0.1,0-0.1-0.1l0,0l0,0H97c0,0,0,0.1,0.1,0.1
				c-0.3-0.1-0.6-0.2-0.9-0.3c0.1,0.1,0.1,0.1,0.8,0.3c-0.1,0-0.2,0-0.2,0c-0.1,0-0.1,0-0.7-0.1c0,0,0.1,0,0.1,0.1
				c-0.1,0-0.2,0-0.2,0c0.2,0.1,0.4,0.2,0.6,0.3c-0.1,0-0.4-0.1-1.1-0.4c0.2,0.2,0.3,0.3,0.5,0.5c-0.5-0.3-0.9-0.6-1.4-0.8
				c0,0-0.1,0-0.1,0.1c-0.2-0.1-0.3-0.2-0.5-0.3c0.1,0.1,0.3,0.2,0.4,0.3c0,0.1,0.1,0.2,0.1,0.2c-0.2-0.2-0.2-0.2-0.3-0.2
				c0.1,0.2,0.1,0.2,0,0.3c0.2,0.1,0.5,0.3,0.6,0.4c-0.1,0-0.1,0-0.3-0.2c0,0-0.1,0-0.1,0.1h-0.1c0,0.1,0.1,0.2,0.1,0.3l0,0h-0.1
				l0,0c-0.1-0.1-0.2-0.2-0.3-0.3v0.1c0.1,0.2,0.5,0.6,0.7,0.9c-0.4-0.3-0.8-0.5-0.9-0.9l-0.1,0.1c0.1,0.2,0.1,0.2,0.1,0.3
				c-0.3,0.5,0.5,0.7,0.6,1c-0.1,0-0.1,0-0.6-0.3c-0.1,0-0.1,0-0.1,0l0,0l0,0l0,0l0,0l0,0l0,0l0,0c-0.3-0.1-0.5-0.3-0.5-0.3
				c-0.1,0.3,0.3,0.4,0.3,0.6c-0.2-0.1-0.2-0.1-0.6,0.2c0,0,0-0.1-0.1-0.1V37l-0.1-0.1c-0.1,0-0.2,0.1-0.3,0.1l-0.1,0.1l0,0
				c-0.1,0.1-0.1,0.1-0.2,0.3L92,37.5c-0.1,0-0.1,0-0.1,0.1c-0.2-0.3-0.1-0.4,0-0.5c-0.1-0.1-0.1-0.2-0.1-0.3
				c-0.1,0-0.1,0.1-0.2,0.1c0,0,0,0.1,0.1,0.1c-0.2,0.2,0,0.5-0.1,0.7c0-0.1,0-0.1,0-0.2h-0.1c-0.3,0.2-0.3,0.2-0.4,0.7
				c-0.8,0.2-0.8,0.2-0.7-0.4c-0.2-0.2-0.2-0.2-0.2-0.4h0.1c0,0,0,0,0.1,0.3c0.7,0,0.7,0,0.9-0.3c-0.1-0.3-0.1-0.3-0.7-0.6
				c0-0.1,0-0.1,0-0.2h-0.1c-0.1-0.2-0.1-0.3-0.2-0.3s-0.1,0-0.4,0.2l0.1-0.1h-0.1c-0.1,0-0.1,0.1-0.2,0.1c0,0,0,0,0.1-0.1h-0.1
				c-0.3,0.2-0.7,0.1-0.9,0.5h-0.1c0-0.1,0.1-0.1,0.1-0.2c-0.3,0-0.6,0.3-0.6,0.3c0.1,0,0.2,0,0.2,0c-0.7,1-2.1,0.9-2.8,1.8h-0.1
				c-0.1,0-0.2,0.1-0.3,0.2c0,0,0.1,0.1,0.2,0.1c-0.1,0.1-0.3,0.1-0.4,0.2v0.1h0.1c0,0,0,0-0.4,0.2c0,0.1,0,0.2,0,0.2
				c-0.2,0.1-0.6,0.3-0.1,0.5c0.1,0.1,0.1,0.1,1-0.5c0,0.1,0,0.1-0.2,0.3c-0.2,0.5-0.3,1-0.6,1.4c0,0,0.1,0,0.1,0.1l0.9-0.4
				c1.3-1.3,1.3-1.3,1.1-1.6c0.3-0.9,1.8-1.7,2.1-1.7c-0.3,0.7-1.4,0.7-1.4,1.7c0.5,0.3,0.5,0.3,1.2,0.1c-0.1,0.5-0.1,0.5-0.2,0.5
				c-0.8-0.4-0.9-0.4-1,0.2c0.2,0.2,0,0.6-0.3,0.7c-0.1-0.1-0.1-0.1,0-0.3h-0.1c-0.3,0.2-0.4,0.3-0.6,0.6c0,0.1-0.1,0.3-0.1,0.4
				c0,0.1,0,0.1,0,0.1h-0.1c-0.3,0.3-0.3,0.3-0.4,0.4c-0.1,0-0.3-0.1-0.1-0.5c-0.4,0.2-0.8,0.2-1.2,0.5l0,0h-0.1c0-0.1,0-0.2,0-0.2
				s0-0.1-0.1-0.1s-0.1,0-0.3,0.2c0,0-0.1,0.1-0.1,0.2c-0.1,0-0.1,0-0.2,0c0,0-0.1,0-0.1-0.1c0,0,0.1-0.1,0.1-0.2l0,0
				c0,0,0-0.1,0-0.2c0.1-0.1,0.2-0.1,0.3-0.2v0.1c0.1,0,0.2,0,0.4-0.4c-0.1,0-0.1-0.1-0.2-0.1s-0.1,0.1-0.2,0.1c0-0.1,0-0.1,0.4-0.8
				c0,0-0.1,0-0.1-0.1c-0.8,0.5-0.8,0.5-0.9,1h0.1c-0.4,0.2-0.4,0.2-0.4,0.6c-0.1,0-0.2,0.1-0.2,0.1H83l0,0c-0.1,0-0.2,0-0.3,0.1
				c0,0-0.1,0-0.1-0.1c-0.2,0-0.2,0-0.5,0.4c0-0.1,0-0.1,0-0.2c-0.3,0.1-0.5,0.4-0.8,0.6h0.1l0,0c-0.3,0-0.3,0-0.6,0.1
				c-1,0.7-1,0.7-1.2,0.7c0,0,0,0-0.1,0c0-0.1,0-0.1,0-0.2h-0.1c-0.2,0.2-0.3,0.4-0.5,0.7c0,0,0-0.1,0-0.2c-0.3,0.1-0.6,0-0.8,0.2
				c0.3,0.9,0.3,0.9-1.1,2.6c0,0,0-0.1-0.1-0.1c-0.3,0.1-0.3,0.1-0.8-0.3c-0.1,0-0.1,0-0.1,0l0,0l0,0l0,0l0,0l0,0l0,0l0,0h-0.1
				c-0.1-0.4-0.6,0-0.9,0c-0.2,0.2-0.2,0.5-0.4,0.7c0,0.1,0,0.1,0,0.1l0,0c-0.3,0.7-1.1,1-1.4,1.7c0.6,0.2,1.2,0.5,1.9,0.6
				c-0.7-0.2-1.3-0.4-1.9-0.5c-0.1,0.1-0.1,0.2-0.2,0.2c0.2,0.1-0.1,0.5-0.1,0.6c0.1,0.1,0.2,0.1,0.3-0.1c0.2,0,0.2,0,0.4,0.1l0,0
				L73.5,50h0.1c-0.1,0.1-0.2,0.2-0.2,0.4c0.1,0.1,0.1,0.1,0,0.2c0.1,0.1,0.2,0.1,0.3,0c0.1-0.1,0.4-0.2,0.4-0.2c0.1,0,0.2,0,0.3,0
				c0.1,0,0.1,0,0.2,0l0,0c0.1,0,0.1,0.1,0.1,0.1c-0.1,0.1-0.1,0.1-0.1,0.2c0.1,0.1,0.2,0,0.2,0s0.1,0,0.1-0.1
				c0.1-0.1,0.1-0.1,0.2-0.1c0.2,0,0.4-0.2,0.6-0.3C76,50,76,50,76,49.9c-0.2,0-0.4-0.1-0.6-0.2c0.2,0,0.4,0.1,0.6,0.1
				c0.3-0.5,0.3-0.5,1.4-1.4c0.3-0.3,0.7-0.5,1-0.8c0.5-0.5,0.5-0.5,1,0c0.3,0,0.6-0.3,0.9-0.4c0.1-0.5,0.2-0.7,0.3-1
				c-0.2,0.3-0.2,0.4-0.3,1c0.1,0,0.1,0,0.2-0.2c0.1,0.1,0.1,0.1,0.3,0.1c0,0,0.1,0,0.1,0.1c-0.1,1.6,0.2,1.7,0.6,1.8v0.1
				c0.2,0.1,0.5,0.9,0.4,1.1l0,0l0,0l0,0l0,0l0,0l0,0l0,0l0,0c0,0,0,0-0.4,0.5c0.1,0.1,0.3,0.1,0.5,0.1c0.1-0.5,0.5-0.8,0.4-1.4
				c0.2,0.1,0.2,0.1,0.4,0.5c0.2-0.1,0.2-0.1,0.1-0.6c-0.1,0-0.1,0-0.2,0c0-0.1,0-0.1-0.1-0.2c-0.1,0-0.1,0-0.2,0
				c-0.7-2.1-0.7-2.1-0.2-2.6c0.1,0,0.2,0,0.2,0.1s0,0.2,0,0.2c0.1,0,0.1,0,0.2-0.4c-0.1,0.2-0.1,0.3-0.2,0.5
				c0.4,0.4,0.1,1.2,0.7,1.5c0.1,0.1,0.1,0.1,0.3,0.2c0,0,0,0,0.1,0l0,0c0-0.1,0.1-0.2,0.1-0.2c0,0.1-0.1,0.1-0.1,0.2l0,0l0,0l0,0
				l0,0l0,0l0,0l0,0l0,0l0,0c0.1,0.2-0.1,0.4,0,0.6c-0.1,0-0.2,0.2-0.2,0.5c0.5,0.2,0.1,0.7,0.3,1.1c0.1,0.1,0.1,0.2,0.1,0.3
				c0.3,0.1,0.6,0.1,1,0.1c0.1-0.3,0.2-0.5,0.2-0.9l0,0l0,0l0,0l0,0l0,0l0,0l0,0l0,0c0-0.2,0-0.2,0-0.3c0.3,0.2,0.3,0.2,0.3,0.2
				c0-0.1,0-0.1,0-0.3c0.7-0.4,0.7-0.4,0.9-0.1c0.1,0,0.1,0,0.4-0.6c0.4-0.2,0.4-0.2,0.5-0.7l0,0l0,0l0,0l0,0l0,0l0,0l0,0l0,0
				c0-0.2,0.3-0.4,0.2-0.7c0.1-0.4,0.2-0.4,0.4-0.4c0.4-0.8,0.4-0.8,0.5-0.9h0.1c0.3,0.4,0.3,0.4,1,0.4c0,0,0,0.1,0.1,0.1
				c-0.1,0-0.1,0-0.6,0.1c0.1,0.3,0.3,0.5,0.5,0.8h0.1c0.1-0.2,0.3-0.2,0.4-0.4h0.1c0,0.1,0.1,0.2,0.1,0.2c0.1-0.1,0.2-0.1,0.3-0.5
				c-0.2-0.1-0.3,0-0.5-0.1c-0.1-0.3,0-0.4,0-0.4c0.2-0.2,0.6-0.2,0.8-0.4c0,0-0.1,0-0.1,0.1c0.1,0,0.3,0,0.4,0
				c-0.2,0.2-0.2,0.2-0.4,0.3c0.2,0.1,0.2,0.1,0.2,0.2c-0.4,0.7-0.4,0.7-0.4,0.7l1.2,0.6c0,0,0,0,0.1,0c0-0.3,0-0.7,0.1-1l0,0
				c0,0.3,0,0.7-0.1,1c0.4,0.3,1,0.2,1.5,0.4c-0.1,0.3,0.1,0.6,0.1,0.9c-1.6,0.2-1.6,0.2-1.6,0.2l0,0l0,0c0,0-0.2,0-0.4,0.1
				c-0.2,0-0.4-0.1-0.9-0.5c-0.2-0.1-0.2-0.1-0.3-0.1c-0.2,0-1.3,0.1-1.4,0.1s-0.1,0-0.1,0.1c-0.2,0.1-0.3,0.2-0.7,0.1
				c-0.4-0.1-0.5-0.1-0.6,0.1c0.1,0,0.2,0.1,0.1,0.2C87.1,50,87,50.1,86.4,50c-0.3,0-0.4,0.1-0.4,0.2c-0.1,0.3,0.1,0.6,0,0.9
				c0.1,0,0.1,0.1,0.2,0.1l0,0h0.1l0,0c-0.1,0-0.1,0-0.2,0c0,0.3,0.5,1.1,0.6,1.2c0.1,0,0.1,0,0.8,0.4c0.3-0.2,0.1-0.7,0.5-0.7
				c0.3,0,0.3,0.4,0.4,0.6c1.1,0.2,1.8-0.6,1.8-0.6s0,0.1,0,0.2c-0.1,0.1-0.1,0.1-0.2,0.6c0,0.1,0,0.1,0,0.2c-0.2,0.3,0.1,0.5,0,0.8
				c0.1,0,0.3,0,0.4,0.1c0,0,0,0-0.2,0.7c-0.1,0-0.2-0.1-0.2-0.2c-0.3,0.2-0.4,0.9-0.4,0.9c-1.1,0.9-1.1,0.9-0.6,2.7
				c-0.5-0.7,0-2.2-1.3-2.3c-0.4,0-0.7,0.4-1.2,0.3c-0.4,0-1.2-0.6-1.2-0.6s-0.1,0-0.1,0.1c-0.1,0-0.2,0-0.3,0l0,0l0,0
				c-0.9-0.7-0.9-0.7-0.8-0.9c-0.2-0.1-0.4-0.2-1,0.1c-0.4,0.2-0.4,0.2-0.5,0.3c-0.1,0.3,0.1,0.6-0.1,0.8c-0.2,0.4-0.9,0.8-0.8,0
				c-0.3-0.3-0.8-0.1-1.1-0.4c-0.2-0.3,0.1-0.7-0.2-0.9c-0.4-0.3-0.8-0.4-1.1-0.4l0,0C79,53.7,79,53.7,79,53.5
				c-0.1,0-0.2-0.1-0.3-0.1c0.7-0.7,0.7-0.7,0.6-1.2c0.1,0,0.2-0.1,0.3-0.1c0-0.3,0-0.3,0.1-0.5c-0.1,0-0.2-0.1-0.3-0.1
				c0,0,0-0.1-0.1-0.1s-0.1,0-0.2,0l0.1-0.1c-1.5,0.5-3.2-0.8-4.6,0.6c-0.1,0.1-0.2,0.2-0.2,0.2c0-0.2,0.1-0.3,0.1-0.4
				c-0.6-0.3-0.7-0.2-0.8-0.2c-0.1,0-0.2-0.1-0.2-0.2c0,0,0-0.1,0.1-0.1c-0.8,0.4-1.4,1.1-2.2,1.4c-0.4,0.5-0.6,0.9-0.8,1.4
				c-0.2,0.4-0.2,0.4-2,1.3c-0.2,0.1-0.3,0.2-0.5,0.5c0,0-2.9,3.1-2.9,3.2c0,0,0.1,0,0.1,0.1c0,0.8-0.1,1.1-1.2,3.3
				C63.4,61.5,63,63,63,63l0,0c0,0.1,0,0.2-0.1,0.3c0,0.2,0,0.4,0,0.6c0,0.1,0,0.2,0,0.3c0.4,0.2,0,0.6,0.2,0.8
				c0.2,0.5,0.1,1.1,0.5,1.4v0.1v0.1c0.1,0.4-0.1,0.9,0.1,1.3c1.4,2.9,1.5,2.9,1.9,2.9l0,0c0.7,0.4,1.8-0.8,2.1,0.2
				c0.1,0.2,0.1,0.2,0.6,0.3c0-0.1,0-0.1,1.3-0.7l0.1,0.1l0.1-0.1c0,0,0,0-0.1,0l0.1,0.1c0.1,0,0.2,0,0.2,0c0.5-0.2,0.5-0.2,0.6-0.1
				c0.2,0.2,1,0.7,1,0.7c0.1,0.8,0.1,0.8,0.2,0.9c0.5,0.4,1.2,0.3,1.8,0.5c0.1,0.3,0.4,0.3,0.6,0.5c0,0.5,0,0.6-0.1,1l0,0
				c-0.2,0.1-0.2,0.1-0.3,0.3v0.1c0.1,0.7,0.1,0.7,0.1,0.7l0.1,0.1c0,0.2,0,0.2-0.2,0.4c-0.3,0.2-0.5,0.3-0.3,1.2
				c0.2,0.8,0.9,1.2,1.2,2c0-0.1,0.1-0.2,0.1-0.2c0,0.1-0.1,0.1-0.1,0.2c0.1,0.1,0.2,0.2,0.4,0.3c0,0.2,0,0.3,0.1,0.5h0.1
				c0.3,0.8,0.9,1.6,1,2.4c0,0,0.1,2.9,0,2.9C76,85.2,76,85.3,76,85.5c0,0.4,0.2,0.7,0.2,1c0,0.2-0.3,0.4-0.3,0.6s0.1,0.4,0.2,0.7
				v-0.1c-0.2,0.4,1.5,2.7,1.9,2.8c0.2,0.8,0.6,1.5,0.7,2.3c0.4,0.3,0.6,0.9,1.1,1.2l0,0c0.3,0.6,0.9,1,1.2,1.6
				c-0.3,0.7,0.8,1.4,1.5,1.3c1.7-0.3,2.7-0.1,2.7-0.1s0.3-0.5,0.7-0.5c0.1,0,0.2,0,0.2-0.1l1.9-2.7c0-0.4,0-0.5,0-0.7
				c0.5-0.2,1-0.2,1.5-0.5s-0.4-1,0.1-1.2c0-0.4-0.7-0.7-0.4-1.2c0.2-0.4,1.2-0.3,1-0.9h0.1h0.1c0.2-0.1,0.2-0.1,0.2-0.2
				c0,0,0,0,0.1-0.1l1.1-0.3c0.1-0.1,0.2-0.1,0.5-0.3h-0.1c0.2,0,0.2-0.1,0.4-0.2c0-0.1,0-0.2,0.2-0.2c0.3-0.1,0.4-1,0.4-1
				c0.1-0.8-0.2-1.6-0.1-2.4c0,0,0-0.1,0.1-0.1c-0.4-0.2-0.7-0.4-0.8-0.9c-0.1-0.4,0.1-0.8,0.1-1.2c0-0.3-0.3-0.5-0.3-0.8
				c0,0,0-0.3,0.4-0.7h-0.1c0-0.2,0-0.6,0.1-0.6c0.2-0.1,0.3-0.1,1-1.6c-0.1,0.2-0.1,0.2-0.1,0.4c0.4-0.8,0.4-0.8,2.4-2.7
				C96,76,96,76,96.1,75.9c0.3-0.3,0.9-0.4,1-0.9c1.1-0.1,2.7-5.5,2.7-6.2c0-0.5-0.2-0.6-0.3-0.7c-0.3,0.6-2.6,1.1-4.3,1.2
				c0-0.2-0.2-0.3-0.3-0.1l-0.1-0.1c0.2,0,0.2-0.1,0.3-0.1c-0.2-0.2-0.3-0.4-0.3-0.7c-0.1,0-0.1,0-0.2-0.2l0,0l0,0l0,0l0,0l0,0l0,0
				l0,0l0,0l0,0c-0.7-1-0.7-1-2.2-2.2c0-0.3-0.1-0.5-0.3-0.7c0.1-0.4,0.1-0.5,0-0.6c0,0,0,0,0-0.1s0,0,0,0l0,0l0,0l0,0l0,0l0,0l0,0
				c-1.2-0.8-1.2-1.1-1.2-1.9c0-0.3,0-0.6-0.1-0.8l0,0l0,0c0-0.3-0.1-0.5-0.1-0.5v0.1v-0.1c-0.1,0-0.2,0-0.3,0c0,0,0,0-0.1-0.1
				c-0.3-0.1-0.5-0.4-0.5-0.4l0,0c0-0.1,0-0.1,0-0.2c0-0.1,0-0.1,0-0.1v0.1c0-0.1-0.1-0.2-0.1-0.3c0.1-0.1,0.1-0.2,0.1-0.3
				c-0.7-1-0.8-2-1.4-2.7l0.1-0.1c0.5,0.1,0.4-0.6,0.7-0.8c-0.2,0.8,0.7,2.1,1.2,2.9l0.1,0.1c0.4,0.5,0.9,1.4,0.9,1.4
				c-0.1,0.8,0.9,1.8,0.9,1.8c0.6,0.6,0.8,1.5,1.4,2.2c0,0,0,0.1-0.1,0.1s-0.3-0.1-0.4,0c0,0.2,0,0.5,0.4,0.6c0-0.1,0.1-0.2,0.1-0.4
				c0,0,0.1,0,0.2-0.1c0.9,0.9,0.1,2.3,1,3.2c0.1,0,0.1,0,0.2,0c0,0,3.4-2,3.6-1.9c1.7-1.7,1.7-1.7,2.5-1.8c0.1-0.3,0.1-0.4,0.3-0.6
				c0.4,0.1,1.3-1.3,1.3-1.3c-0.6-1,1.1-1.6,0.5-2.6c-0.5-0.8-1.5-0.5-2.1-1c0-0.7-0.1-0.9-0.4-1.2c-0.2,0.4-0.3,0.9-0.7,1.3
				c-0.3,0.3-0.8,0.2-1.1,0.5c-0.4-0.2-0.4-0.2-0.5-0.4l0,0l0,0c0-0.1-0.1-0.2-0.1-0.3c0.1,0,0.2-0.1,0.2-0.2c0-0.3-0.1-0.7-0.2-0.9
				c-0.1,0-0.2,0.1-0.2,0.2h-0.1c-0.6,0-0.6,0-0.6,0c-0.9-0.1-0.7-1.2-1.3-1.5l0,0c-0.4-1.2,0.4-0.9,0.5-0.9
				c0.3,0.1,0.4,0.4,0.6,0.8c0.2,0.3,0.3,0.6,0.7,0.7c0.4,0.2,0.7,0.5,1.1,0.6c0.2,0.1,0.2,0.1,1.7-0.4c0.6-0.2,0.3,1,0.9,1.1
				c0,0,2,0.2,2.7,0s2.9-0.6,3.6,1c0.2,0.1,0.2,0.1,0.6,0c-0.2,1.8,1.2,1.3,1.2,1.3c0.2-0.2,0.2-0.7,0.2-1l0.1-0.1
				c0.6,0.7,0.7,1.5,1,2.3s0.8,1.4,1.2,2.2c0.6,1.2,1.4,2.2,2,3.4l0.4,0.7c0.2,0.4,0.4,1,0.8,0.2c0.4-0.2,0.4-2.2,0.4-2.2l-0.7-3.1
				l0,0l0,0l0,0l0,0l0,0l0,0l0,0l0,0c1.2-0.5,1.6-4.8,1.6-4.8c-0.2-0.1-0.3-0.1-0.3-0.5l0.1,0.1c0.1,0.1,0.1,0.1,0.1,0.1l0,0l0,0
				l0,0l0,0l0,0l0,0l0,0l0.1,0.1c0.1,0,0.2,0,0.3-0.1c0.1,0,0.1,0.1,0.2,0.1l0,0l0.1-0.1c0-0.2,0-0.2,0.3-0.5c0-0.1-0.1-0.2-0.1-0.3
				c0.1,0,0.1,0,0.2,0c0.2,0.2,0.2,0.4,0.4,0.6l0,0c0,0,0.5,0.7,0.6,0.7l0.1,0.1c0.1,0,0.2-0.1,0.2-0.1c0.9,0,0.8,1.1,1.2,1.6
				c0.2,0.5,0.2,0.5,0.2,0.6l0.1,0.1c0.1,0,0.1,0,0.4,0.1c0.1-0.2,0.1-0.2,0-1.3c0.7,0.9,0.7,0.9,1.7,3.8h0.1
				c0.3,0.3,0.4,2.3,0.4,2.5l0.1-0.1c0.5,0.2,0.8,0.9,0.8,1c0,1.2,0,1.2,1.1,2.9c0.1,0,0.1-0.1,0.2-0.1c-0.1,0-0.1,0.1-0.2,0.1
				c0.1,0.3,0.1,0.3,0.1,0.3c0.1,0.1,0.1,0,0.2-0.1l0,0c0,0,0-0.1,0-0.4c-0.1-0.6-0.4-2.7-0.8-2.9l0,0c-0.7-0.4-0.5-1.5-1.2-1.9
				c0,0,0,0.1-0.1,0.1l-0.7-3.1c0.1,0,0.1,0,0.5,0.6c0.1,0,0.2,0,0.3,0c0.2,0.3,0.2,0.3,0.7,1c0.1,0,0.2,0,0.2-0.1
				c0.4,0.3,0.2,0.7,0.4,1.1l0,0l0.1-0.1c0-1.2,0.4-2.4,0-3.6c-0.5-1.4-1.7-2.2-2.4-3.4c-0.1-0.2-0.3-0.5-0.2-1.7l0,0l0,0
				c0-0.1,0.2-0.2,0.2-0.3c0.1,0.1,0.1,0.2,0.2,0.3l0,0l0,0l0,0l0,0l0,0l0,0l0,0l0,0c0,0.1,0.1,0.2,0.2,0.2c0,0,0,0,0-0.7
				c0,0,0,0,0.1,0c-0.1-0.2,0-0.5-0.1-0.7c-0.1-0.3-0.1-0.6-0.2-0.8c0.2,0.2,0.2,0.5,0.4,0.7L123,53c-0.4-1.2-0.8-2.4-2-4.2
				l-0.1-0.2c-0.1,0-0.2,0-0.2,0c-0.7-0.6-0.7-0.6-1.2-0.9c0.2,0,0.2,0,0.4,0.1h0.1c0,0,0-0.1,0.1-0.1c-0.7-0.2-1.3-0.8-1.9-1.2
				c0-0.1-0.1-0.2-0.1-0.2c0-0.1,0-0.1-0.2-0.5c-0.3-0.8-0.5-0.8-0.8-0.9l0,0l0,0l0,0c0,0,0,0-0.1-0.1l0,0v0.1l0,0
				c0,0-0.1,0-0.1,0.1c0.1,0.2,0.1,0.2,0.3,0.3v0.1c-0.1-0.1-0.2-0.2-0.3-0.3l0,0l0,0h-0.1l0,0l0,0l0,0l0,0l0,0l0,0l0,0l0,0l0,0
				c-0.1,0-0.2-0.1-0.3-0.1c-0.2-0.2-0.4-0.6-0.9-1.3h0.1c0.4,0.2,0.6,0.6,0.9,0.8c0-0.2-0.2-0.5-0.3-0.5s-0.1-0.1-0.1-0.2
				c0.5,0.1,0.7,0.6,1.1,0.8h0.1h0.1c0.1,0.1,0.2,0.1,0.2,0.1l0,0c0.2,0.2,0.3,0.4,0.5,0.5c0.1,0.1,0.3,0.2,0.4,0.3
				c0.2,0.2,0.4,0.5,0.6,0.7l0,0c0.1,0.1,0.2,0.2,0.2,0.2c-0.4-0.5-0.4-0.6-0.3-0.7l-0.1-0.1c-0.2-0.3-1-1-1.1-1.1
				c0,0.1-0.2,0-0.3-0.1c-0.2-0.2-0.2-0.2-0.2-0.2l0,0c-1.9-1.7-1.9-1.7-1.9-1.8c-0.1-0.1-0.3-0.2-0.4-0.4c0.1,0,0.1-0.1,0.2-0.1
				c-0.5-1-4.2-3.6-7.2-4.3c0.4,0.2,0.7,0.3,1.1,0.6c-0.4-0.2-0.8-0.4-1.1-0.5c0,0.1,0,0.1,0.2,0.3c-0.8-0.1-2.7-1.4-2.7-1.4
				c0.1,0,0.1-0.1,0.2-0.1c0-0.1,0-0.1-0.3-0.3v-0.1c0.2,0,0.3,0.1,0.4,0.1c-0.1,0-0.1-0.1-0.2-0.1h0.1c-0.5-0.3-1.2-0.3-1.7-0.6
				c0.1,0,0.1,0,0.8,0.1c-0.4-0.3-1-0.3-1.5-0.5l0,0c0.2-0.1,0.2-0.1,3.4,1.2c0.1,0,0.1,0,0.1,0l0,0l0,0l0,0
				c1.1,0.4,1.7,0.6,2.1,0.7c0.2,0.1,0.4,0.2,0.5,0.3l0.1,0.1c1.2,0.7,2.8,1.7,3.9,2.6c0.2,0.2,0.4,0.3,0.6,0.5
				c-0.1,0-0.2-0.1-0.3-0.2l0,0c0,0,0.1,0.1,0.2,0.2c0.1,0.1,0.1,0.1,0.1,0.1s0.2,0.1,0.4,0.2c0.6,0.5,1.1,0.9,1.5,1.3
				c0.6,0.5,1.3,1.3,1.8,1.8s1,1.1,1.4,1.7c0,0.1,0.2,0.3,0.3,0.4l0,0c0.1,0.1,0.1,0.2,0.2,0.2c0,0,0,0-0.1,0l0,0
				c0,0.1,0.1,0.2,0.2,0.3c0.1,0.2,0.1,0.2,0.1,0.2h0.1c0.4,0.5,0.9,1.3,1.4,1.9c0.5,0.7,1.1,1.8,1.6,2.7c0.3,0.6,0.7,1.4,1.1,2.1
				l0.2,0.3c0.3,0.6,0.6,1.4,0.8,2.1l0,0c-0.1-0.1-0.1-0.2-0.2-0.3l0,0v0.1c0.3,0.5,0.3,0.6,0.3,0.7c0,0.1,0,0.1,0.1,0.2
				c0,0.2,0.1,0.3,0.2,0.4c0,0.1,0,0.2,0,0.3l0.2,0.5c0,0,0.1,0.2,0.2,0.3c0,0.1,0.1,0.2,0.1,0.3c0.1,0.3,0.2,0.6,0.2,0.8
				c0.3,0.9,0.5,2,0.6,3c0,0,0,0,0,0.1s0,0.3,0,0.4c0,0,0,0.2,0.1,0.2c0,0.1,0,0.1,0,0.2c0,0.2,0.1,0.4,0.1,0.6c0,0,0,0,0,0.1l0,0
				c0,0.6,0.1,1.2,0.1,1.9c0,0.2,0,0.2,0,1c-0.1,0.2-0.1,0.2-0.4,1.9l0,0c0,0.2,0,0.3,0,0.3v-0.1l0,0c0,0,0,0.1-0.1,0.1
				c-0.2,0.3-0.2,0.4-0.1,1.3l0.2,1.7c0,0.1,0,0.2,0.2,0.3c0,0,0,0,0.1-0.2l0,0l0,0l0,0l0,0l0,0l0,0l0,0l0,0c0.1,0,0.1,0.1,0.1,0.1
				l0,0c-0.1,0.7-0.2,1.4-0.2,1.9c0,0.2-0.1,0.5-0.1,0.7c0-0.1,0-0.1,0-0.1c0-0.1-0.1-0.1-0.1-0.1h-0.1c0,0,0,0-0.1,0.1
				c-0.1,0.2-0.2,0.4-0.2,0.4c-0.1,0.1-0.2,0-0.2,0c-0.1-0.1-0.2-0.1-0.4,0c-0.1,0.1-0.1,0.2-0.1,0.4c0,0.1-0.1,0.4-0.1,0.4v0.1
				c0,0.1,0.1,0.2,0.2,0.2c0.2,0,0.3-0.2,0.5-0.2c0.1,0,0.1,0.1,0.2,0.1h0.1l0,0c-0.1,0.5-0.2,1-0.3,1.4
				C126.1,76.9,126,77.2,126,77.4z M97.6,48.5L97.6,48.5L97.6,48.5L97.6,48.5z M95.2,50.9C95.1,50.9,95.1,50.8,95.2,50.9
				c-0.1-0.3-0.1-0.4-0.1-0.4C95,50.2,95,49.8,95,49.7l0,0c0.2-0.5,0.3-0.8-0.2-0.9c-0.1-0.2-0.1-0.2-0.3-0.2l0,0v-0.1l0,0l0,0l0,0
				l0,0l0,0l0,0l0,0l0,0c-0.4-0.1-0.8-0.7-0.7-1.2c-0.8-0.2-0.5-0.6,0-1.2l0,0c0,0,0,0,0.2-0.3c0.7-0.2,1.4-0.2,1.3,0.6
				c-0.4,0.2-0.4,0.2-0.4,0.3c-0.2,0.1-0.2,0.1-0.3,0.3c0.5,0.2,0.5,1.1,1.2,1c0.1,0.4,0.1,0.5,0.3,0.8h0.1c0-0.2,0-0.3,0-0.5h0.1
				c0.2,0.1,0.5,0.1,0.6,0.4c0,0,0.1,0.4-0.2,0.4c-0.2,0-0.4-0.1-0.6,0c0.2,0.3,0.2,0.3,0.4,1c0.1-0.1,0.1-0.1,0.1-0.4
				c0.4,0.1,0.2,0.5,0.4,0.7c0,0,0,0,0.1,0l0,0l0,0c0.1,0.3,0.1,0.4,0.4,0.6c-0.1,0.1-0.2,0.2-0.2,0.3h-0.1
				c-0.3-0.1-0.5,0.2-0.8,0.1c-0.3-0.1-0.5-0.4-0.8-0.5C95.4,50.9,95.3,50.9,95.2,50.9z M95.4,56L95.4,56c-0.1,0.1-0.1,0.1-0.2,0.2
				C95.3,56.2,95.4,56.1,95.4,56z M94.6,36.9c-0.2,0-0.2,0-0.3-0.1c0.1,0,0.2,0,0.2,0c0.1-0.4-0.1-0.6-0.3-0.8c0.2,0,0.2,0,0.9,0.5
				c0,0-0.1,0-0.1,0.1c-0.2-0.1-0.3-0.4-0.6-0.4C94.4,36.3,94.9,36.6,94.6,36.9z M94.2,35.5c-0.1,0-0.1,0-0.2-0.1
				C94.1,35.5,94.1,35.5,94.2,35.5z M94.1,35.3c0.2,0.1,0.5,0.2,0.7,0.4C94.6,35.7,94.3,35.5,94.1,35.3z M96.5,42.8L96.5,42.8
				L96.5,42.8L96.5,42.8z M97.1,48.6L97.1,48.6c-0.1-0.1-0.1-0.1-0.2-0.2C97,48.5,97,48.5,97.1,48.6z M93.2,44.9L93.2,44.9
				L93.2,44.9L93.2,44.9z M89.8,43.9L89.8,43.9L89.8,43.9L89.8,43.9z M89.8,43.9L89.8,43.9L89.8,43.9L89.8,43.9z M89.4,43.9
				L89.4,43.9L89.4,43.9L89.4,43.9z M87.2,37.2L87.2,37.2L87.2,37.2L87.2,37.2z M88.3,42.8L88.3,42.8L88.3,42.8L88.3,42.8z
				 M87.9,40.6L87.9,40.6L87.9,40.6L87.9,40.6z M87.9,40.7L87.9,40.7L87.9,40.7L87.9,40.7z M87.8,40.8L87.8,40.8L87.8,40.8
				L87.8,40.8z M86.8,46.8L86.8,46.8L86.8,46.8L86.8,46.8z M86.1,41.4L86.1,41.4L86.1,41.4L86.1,41.4z M86.1,43L86.1,43L86.1,43
				L86.1,43z M85.7,48.4L85.7,48.4L85.7,48.4L85.7,48.4L85.7,48.4z M84.4,48.5L84.4,48.5L84.4,48.5L84.4,48.5z M83.9,45.6L83.9,45.6
				L83.9,45.6L83.9,45.6z M83.9,48.6L83.9,48.6L83.9,48.6L83.9,48.6z M83.8,47.8L83.8,47.8L83.8,47.8L83.8,47.8z M83.6,44.7
				L83.6,44.7C83.5,44.7,83.5,44.7,83.6,44.7C83.5,44.7,83.5,44.7,83.6,44.7z M83.5,40.8L83.5,40.8L83.5,40.8L83.5,40.8z M83.3,43
				L83.3,43L83.3,43L83.3,43z M83.2,44.9L83.2,44.9L83.2,44.9L83.2,44.9z M82.9,43.9L82.9,43.9L82.9,43.9L82.9,43.9L82.9,43.9z
				 M82.9,43.9L82.9,43.9L82.9,43.9L82.9,43.9z M82.5,44.3L82.5,44.3L82.5,44.3L82.5,44.3z M82.4,44.3L82.4,44.3L82.4,44.3
				L82.4,44.3z M82.3,45.4L82.3,45.4C82.3,45.4,82.2,45.4,82.3,45.4C82.2,45.4,82.3,45.4,82.3,45.4z M82,44.4L82,44.4L82,44.4
				L82,44.4z M81.6,42.5L81.6,42.5L81.6,42.5L81.6,42.5z M80.8,43.2L80.8,43.2L80.8,43.2c0,0,0.1,0.1,0.4,0.2l0,0
				C80.9,43.3,80.8,43.2,80.8,43.2z M81,45.1L81,45.1L81,45.1L81,45.1z M80.7,42.6c0.1,0.1,0.1,0.2,0.1,0.2
				C80.8,42.8,80.7,42.7,80.7,42.6c-0.1-0.2,0-0.3,0.1-0.4l0,0C80.7,42.2,80.6,42.4,80.7,42.6z M80.8,43
				C80.8,43.1,80.8,43.1,80.8,43C80.7,43.1,80.8,43.1,80.8,43z M81.1,42.1L81.1,42.1C81.1,42.1,81.2,42.1,81.1,42.1
				C81.2,42.1,81.1,42.1,81.1,42.1z M77.8,46.6L77.8,46.6C77.8,46.6,77.7,46.6,77.8,46.6C77.7,46.6,77.8,46.6,77.8,46.6z M77.7,46.6
				L77.7,46.6C77.7,46.5,77.7,46.5,77.7,46.6C77.7,46.5,77.7,46.6,77.7,46.6L77.7,46.6z M77.2,46.3L77.2,46.3
				c-0.1-0.1-0.1-0.1-0.1-0.2C77,46.2,77.1,46.3,77.2,46.3z M77,46.1L77,46.1C77,46.1,77,46,77,46.1C77,46,77,46,77,46.1z
				 M73.5,48.5L73.5,48.5L73.5,48.5L73.5,48.5z M88.2,90.2L88.2,90.2L88.2,90.2L88.2,90.2z M88.2,90.3L88.2,90.3L88.2,90.3
				L88.2,90.3z M88.2,90.3L88.2,90.3L88.2,90.3L88.2,90.3z M88.1,90.4L88.1,90.4L88.1,90.4L88.1,90.4z M87.9,93
				C87.8,93,87.8,93,87.9,93C87.8,93,87.8,93,87.9,93C87.8,93,87.8,93,87.9,93z M87.7,91L87.7,91L87.7,91L87.7,91z M84.2,88.6
				L84.2,88.6L84.2,88.6L84.2,88.6z M83.4,62.5C83.3,62.5,83.3,62.5,83.4,62.5C83.3,62.5,83.3,62.5,83.4,62.5z M83,84.5L83,84.5
				L83,84.5L83,84.5z M83,84.6L83,84.6L83,84.6L83,84.6z M82.9,85.3L82.9,85.3L82.9,85.3L82.9,85.3z M82.9,85.5L82.9,85.5L82.9,85.5
				L82.9,85.5z M82.3,85.4L82.3,85.4L82.3,85.4L82.3,85.4C82.3,85.3,82.3,85.3,82.3,85.4C82.3,85.3,82.3,85.4,82.3,85.4L82.3,85.4z
				 M75.9,79.6L75.9,79.6L75.9,79.6L75.9,79.6z M75.8,79.5C75.9,79.5,75.9,79.4,75.8,79.5L75.8,79.5L75.8,79.5L75.8,79.5z
				 M71.8,66.3L71.8,66.3L71.8,66.3L71.8,66.3z M71.8,66.3L71.8,66.3c0,0.1-0.1,0.1-0.1,0.2C71.7,66.4,71.8,66.4,71.8,66.3
				L71.8,66.3z M70.7,66.6L70.7,66.6L70.7,66.6L70.7,66.6L70.7,66.6L70.7,66.6L70.7,66.6z M68.4,67L68.4,67
				C68.4,67.1,68.4,67.1,68.4,67L68.4,67L68.4,67L68.4,67L68.4,67L68.4,67L68.4,67L68.4,67L68.4,67C68.4,67.1,68.4,67.1,68.4,67z
				 M68.4,67.2L68.4,67.2L68.4,67.2L68.4,67.2z M65.1,64.6L65.1,64.6L65.1,64.6L65.1,64.6z M64.3,64L64.3,64L64.3,64L64.3,64z
				 M88.5,89.8L88.5,89.8L88.5,89.8L88.5,89.8z M94.6,69.2L94.6,69.2L94.6,69.2L94.6,69.2L94.6,69.2L94.6,69.2L94.6,69.2L94.6,69.2
				L94.6,69.2L94.6,69.2L94.6,69.2L94.6,69.2L94.6,69.2L94.6,69.2L94.6,69.2L94.6,69.2L94.6,69.2L94.6,69.2L94.6,69.2L94.6,69.2
				L94.6,69.2L94.6,69.2L94.6,69.2L94.6,69.2L94.6,69.2L94.6,69.2L94.6,69.2L94.6,69.2L94.6,69.2L94.6,69.2L94.6,69.2L94.6,69.2
				L94.6,69.2L94.6,69.2L94.6,69.2z M94.6,69.1L94.6,69.1L94.6,69.1L94.6,69.1L94.6,69.1z M109.1,50.7c0.1,0.1,0.1,0.2,0.2,0.4h0.1
				c0.1,0.1,0.1,0.2,0.1,0.2c0,0.1,0,0.1-0.1,0.4c-0.1,0-0.2,0-0.3,0c0,0-0.1,0-0.1-0.1c-0.1-0.1-0.2-0.2-0.3-0.2h-0.1
				c-0.2,0-0.3-0.3-0.5-0.3c0-0.1,0-0.1-0.1-0.2c0-0.1,0.1-0.1,0.1-0.1c0.1,0,0.2,0,0.2,0c0.1,0,0.1,0,0.1-0.1s0.1-0.1,0.2-0.1l0,0
				c0,0,0,0.1,0.1,0.1C108.8,50.6,109,50.6,109.1,50.7z M109,39.8L109,39.8L109,39.8L109,39.8L109,39.8L109,39.8L109,39.8z
				 M109,39.8L109,39.8L109,39.8L109,39.8z M109,39.8L109,39.8L109,39.8L109,39.8z M109,39.8L109,39.8L109,39.8L109,39.8z
				 M114.4,55.3L114.4,55.3L114.4,55.3L114.4,55.3z M120.9,55.5L120.9,55.5L120.9,55.5L120.9,55.5z M123.8,60.5L123.8,60.5
				L123.8,60.5L123.8,60.5z"/>
			<path d="M105.6,35.2c-0.1,0-0.2-0.1-0.3-0.1l0.5,0.2C105.9,35.3,105.8,35.3,105.6,35.2z"/>
			<path d="M113.2,39.6c-0.1-0.1-0.2-0.2-0.4-0.2c-0.2-0.1-1.2-0.5-1.2-0.6c0.2,0,0.3,0.2,0.4,0.1l0,0c0,0-1.5-0.5-1.7-0.6
				c0,0-1.8-0.8-1.9-0.7l0,0c0.7,0.3,1.3,0.6,2,0.8c1,0.4,1,0.5,1.3,0.7s0.3,0.2,0.4,0.2l0,0c0.1,0,0.2,0.1,0.4,0.2l0.9,0.5
				c-0.1-0.2-0.3-0.2-0.5-0.3C113.1,39.5,113.2,39.5,113.2,39.6z"/>
			<path d="M122.9,51.3L122.9,51.3c0,0.1,0.1,0.3,0.1,0.3s0,0,0.1,0.3c0.1,0.1,0.1,0.3,0.1,0.4c0,0.1,0.1,0.1,0.1,0.2
				c0.2,0.3,0.5,0.7,0.5,0.7c0.1,0,0.1-0.2-0.1-0.5C123.7,52.6,123,51.4,122.9,51.3z"/>
			<path d="M90,37.4L90,37.4C90,37.5,90,37.5,90,37.4l0.2,0.1l0,0l0,0l0,0c0,0,0,0,0-0.3C90.2,37.3,90.1,37.3,90,37.4L90,37.4z"/>
			<path d="M71,39.7L71,39.7L71,39.7c0.2,0,0.2-0.1,0.2-0.1l0,0C71.2,39.6,71.1,39.6,71,39.7L71,39.7c-0.2,0-0.2,0-0.3,0.1v0.1
				C71,39.8,71,39.8,71,39.7z"/>
			<path d="M66.7,53.2C66.7,53.2,66.7,53.2,66.7,53.2c0-0.2,0-0.2,0.1-0.3c0,0,0,0,0.1-0.1l0,0c0.1,0,0.2-0.2,0.1-0.2h-0.1
				c0,0,0,0-0.1,0l-0.1,0.1c0,0-0.1,0-0.1,0.1l0,0c0,0,0,0,0,0.1c0,0,0.1,0,0,0.2l0,0C66.6,53.2,66.7,53.2,66.7,53.2z"/>
			<path d="M78.9,49c0,0.1-0.1,0.2,0,0.2l0,0l0,0l0,0l0,0l0,0l0,0l0,0l0,0c0.1-0.2,0.2-0.4,0.3-0.4c0.1-0.1,0.2-0.1,0.3-0.3
				c0.1-0.1,0.1-0.2,0.1-0.2c0.1-0.2,0-0.4,0.1-0.6c0.1-0.3,0.3-0.7,0.5-1c-0.2,0.2-0.4,0.4-0.5,0.5h-0.1c0,0-0.1,0.4,0,0.5
				c-0.1,0.2-0.2,0.2-0.5,0.3c-0.1,0-0.4,0.9-0.4,0.9c0,0.1,0,0.1,0,0.1C78.8,49,78.9,49,78.9,49z"/>
			<path d="M83.5,50.1c0,0.3-0.1,0.5-0.1,0.7c0.1,0,0.2,0.1,0.3,0c0,0.2,0,0.3,0,0.5c0.1-0.1,0.2-0.2,0.4-0.2c0-0.1,0.1-0.2,0-0.4
				v-0.1c0,0,0,0,0.1-0.4c-0.3,0-0.7-0.1-1-0.1C83.2,50.1,83.3,50.2,83.5,50.1z"/>
			<path d="M84.3,52.2c0,0,0,0.1,0.1,0.2c0,0,0,0,0.1,0s0.4,0.2,0.6,0c0.1-0.1,0.1-0.1,0.1-0.1s0.1,0,0.1-0.2c0-0.1,0-0.2,0-0.3
				c-0.2,0.2-0.7,0.1-0.9,0c0-0.1,0-0.1,0-0.2l0,0c-0.2,0-0.3,0-0.3,0.2C84,52.1,84.2,52.1,84.3,52.2z"/>
			<path d="M88,52.5c0.1,0.1,0.1,0.2,0.2,0.2c0,0.1,0.1,0.1,0.2,0l0,0c0,0,0-0.1,0.1-0.1c0.1-0.1,0.2-0.2,0.2-0.3
				c0.1-0.2,0.1-0.2,0.2-0.3c0.1,0,0.1,0,0.2-0.1v-0.1l0,0c0,0,0,0-0.1,0c0,0-0.1,0.1-0.2,0.1s-0.1,0-0.2,0c0,0,0,0-0.1,0s0,0,0,0
				c0,0.1-0.1,0.1-0.2,0.1s-0.1,0-0.1,0.1s-0.1,0.1-0.1,0.1H88c-0.2,0-0.2,0.2-0.2,0.2C87.9,52.5,88,52.5,88,52.5z"/>
			<path d="M67.5,53.8c0,0,0-0.1,0.2-0.3c0.1,0,0.1,0,0.2,0.1c0,0,0.1-0.1,0.1-0.2c0,0,0,0,0.1,0c0.1-0.1,0.1-0.2,0.2-0.2
				c0,0,0,0,0.1,0l0.1-0.1h0.1l0,0c0.1-0.1,0-0.2,0-0.2c-0.1,0-0.1,0-0.2,0c-0.1,0.1-0.1,0.2-0.2,0.3c0,0-0.1,0-0.1,0.1H68
				c0,0-0.1,0-0.1,0.1c-0.1,0.2-0.2,0.2-0.2,0.3s0,0.2,0,0.2C67.3,54,67.4,53.9,67.5,53.8z"/>
			<path d="M67.2,53.7C67.2,53.6,67.1,53.6,67.2,53.7L67.2,53.7L67.2,53.7L67.2,53.7L67.2,53.7L67.2,53.7L67.2,53.7L67.2,53.7
				L67.2,53.7L67.2,53.7c-0.2-0.1-0.2,0-0.3,0.1H67C67.1,53.8,67.1,53.8,67.2,53.7L67.2,53.7L67.2,53.7z"/>
			<path d="M85.8,40.1L85.8,40.1L85.8,40.1C85.9,40.1,85.9,40.1,85.8,40.1c0.1,0,0.1,0,0.2,0l0,0c0.1,0,0.1-0.1,0.1-0.1l0.1-0.2l0,0
				c0,0-0.2,0-0.2,0.1C85.9,39.9,85.8,40,85.8,40.1L85.8,40.1z"/>
			<path d="M66.9,53.1C66.9,53.1,66.9,53.2,66.9,53.1l-0.2,0.2l0,0c0,0.1,0.1,0.1,0.2,0.1l0,0c0,0,0-0.1,0.1-0.1c0,0,0,0,0.1,0
				c0,0,0.1,0,0.1-0.1c0.1-0.1,0.1-0.2,0-0.2s-0.1,0-0.1,0C67,53.1,67,53.1,66.9,53.1L66.9,53.1L66.9,53.1z"/>
			<path d="M123.1,69.8C123.1,69.8,123,69.8,123.1,69.8c-0.2,0.1-0.3,0.3-0.2,0.4c0,0,0.2,0.1,0.3,0.1c0.1,0,0.1-0.1,0.1-0.2
				C123.3,69.9,123.2,69.8,123.1,69.8z"/>
			<path d="M125.8,71.9L125.8,71.9c0.1,0.1,0,0.1,0.1,0.2s0.1-0.1,0.1-0.2s0-0.1,0-0.1l0,0c0,0-0.1,0.1-0.2-0.3l0,0
				C125.7,71.5,125.7,71.9,125.8,71.9z"/>
			<path d="M123.5,56.3c-0.1-0.2-0.2-0.3-0.2-0.3s0,0,0,0.1s0,0.1,0,0.1s0,0-0.1,0h-0.1l0,0c-0.1,0.2-0.1,0.3,0.1,0.7
				s0.4,0.3,0.4,0.3c0-0.3,0-0.4,0-0.4c0-0.1,0-0.1-0.1-0.2C123.6,56.7,123.6,56.5,123.5,56.3z"/>
			<path d="M120.5,62.8c0,0.2,0,0.4,0.1,0.6c0.1,0.2,0.2,0.4,0.2,0.6c0,0.1,0,0.2,0,0.3c0,0,0,0.1,0.1,0.1c0.1,0.1,0.1-0.2,0.1-0.3
				C121,64.1,120.7,62.9,120.5,62.8z"/>
			<path d="M80.7,49.8c0,0.1,0,0.2-0.1,0.3h-0.1C80.6,50,80.6,49.8,80.7,49.8c-0.1-0.1-0.1-0.1-0.2-0.1h-0.1h-0.1l0,0
				c0,0-0.4,0-0.4,0.1v0.1c0,0.1,0.1,0.2,0.1,0.2v0.1l0,0c0.1,0.1,0.2-0.1,0.3,0c0.1,0.1,0,0.2,0,0.4c0.2-0.1,0.2,0.2,0.3,0.2
				c0.1,0,0.1,0,0.1-0.2s0.2-0.8,0.4-0.9c0,0.3,0.3,0.2,0.4,0.1c0,0,0,0,0-0.1c-0.2,0-0.4,0-0.6-0.1C81,49.8,80.8,49.8,80.7,49.8z"
				/>
			<path d="M97.2,34.7c-0.1,0-0.1-0.1-0.2-0.1C97,34.7,97.1,34.7,97.2,34.7z"/>
			<path d="M116.9,45L116.9,45L116.9,45C117,45.1,117,45.1,116.9,45L116.9,45L116.9,45L116.9,45L116.9,45L116.9,45
				C116.9,45.1,116.9,45.1,116.9,45C116.9,45.1,116.9,45.1,116.9,45c0,0.1,0,0.1,0,0.2C116.9,45.1,117,45.1,116.9,45
				C117,45,116.9,45,116.9,45z"/>
			<path d="M97.2,34.7L97.2,34.7L97.2,34.7L97.2,34.7z"/>
			<path d="M125.8,73c0.1-0.6-0.2-1.2-0.3-1.8c-0.1,0.1-0.2,0-0.2-0.1c-0.1-0.2,0-0.3,0.1-0.4c0.1,0,0.1-0.1,0.1-0.3
				c-0.1,0-0.1,0-0.2-0.1c-0.2-0.2-0.2-0.4-0.4-0.6c-0.1-0.1-0.3,0-0.5-0.2c-0.1-0.1-0.2-0.2-0.4-0.5c-0.2-0.3-0.3-0.7-0.4-0.8
				c0-0.1-0.1-0.3-0.2-0.3c-0.1-0.1-0.1-0.1-0.9,0.2c0.2,0.3,0.3,0.6,0.5,0.9c0.1,0.2,0.2,0.2,0.3,0.2c0.1,0,0.1,0,0.1,0
				c0.2,0.2,0.1,0.5,0.3,0.8c0,0,0,0.1,0.1,0.1c0.1,0.1,0.2,0.1,0.2,0.1c0,0.4,0,0.8,0.2,1s0.2,0.3,0.2,0.6c0,0.2,0,0.3,0.1,0.5
				s0.2,0.4,0.3,0.7c0.1,0.2,0.1,0.5,0.1,0.7c0.1,0.2,0.1,0.2,0.2,0.2c0,0,0,0,0.1,0c0.1,0.6,0.3,0.9,0.3,0.9c0.1,0,0.1-0.1,0.2-0.3
				l0,0C125.6,74.5,125.7,74.5,125.8,73z"/>
			<path d="M126.3,72.1c0-0.1,0-0.1,0-0.2s0-0.2,0-0.3c0,0,0-0.1,0,0l-0.1,0.2c0,0.2,0,0.5,0.1,0.6
				C126.3,72.4,126.3,72.2,126.3,72.1z"/>
			<path d="M124.2,72.7c0-0.1,0-0.1,0-0.3c0-0.1,0-0.6-0.2-0.5c-0.1,0-0.1,0.1-0.1,0.1c0,0.1,0.1,0.3,0.1,0.6
				C124.1,72.7,124.1,72.7,124.2,72.7z"/>
			<path d="M124.3,72.9c-0.2,0.1-0.2,0.5-0.1,0.6l0,0l0,0c0-0.2,0.1-0.3,0.1-0.3h0.1v-0.1C124.4,73,124.4,72.9,124.3,72.9z"/>
			<path d="M76.9,48.3L76.9,48.3c0,0.2,0.1,0.1,0.2,0s0.1-0.1,0.1-0.4C77.1,48,77,48.1,77,48.1C76.8,48.3,76.8,48.4,76.9,48.3z"/>
			<path d="M101.2,81.4c0,0,0-0.2-0.2-0.2c-0.1,0-0.1-0.1-0.1-0.1l0,0l0,0l0,0l0,0l0,0l0,0l0,0l0,0c0,0.2,0,0.3,0.1,0.5
				C100.9,81.6,101.1,81.5,101.2,81.4z"/>
			<path d="M94.9,33.8C95,33.8,95,33.8,94.9,33.8C95,33.8,95,33.8,94.9,33.8c0.1,0.1,0.8,0.3,0.8,0.2l0,0l0,0h0.1l0,0l0,0
				c0,0-0.3-0.1-0.4-0.1h-0.1l0,0h-0.1h-0.1c0.1,0,0.2,0,0.2,0.1c-0.1,0-0.1,0-0.2,0C95,33.8,94.9,33.8,94.9,33.8z"/>
			<path d="M95.9,34.1L95.9,34.1c0.2,0.1,0.3,0.2,0.3,0.2l-0.1-0.1C96.2,34.2,96.1,34.2,95.9,34.1z"/>
			<path d="M98.1,33.6C98.1,33.6,98,33.6,98.1,33.6c-0.1,0,0,0,0.2,0.1h0.1c0,0,0,0,0.1,0s0.1,0,0.2,0l0,0l0,0c0,0,0,0-0.1,0h-0.1
				C98.3,33.6,98,33.6,98.1,33.6C98,33.6,98,33.6,98.1,33.6L98.1,33.6z"/>
			<path d="M95.6,33.8c0,0,0,0-0.2,0c-0.1,0-0.1,0-0.1,0c0.1,0,0.6,0.2,0.7,0.2l0,0l0,0h0.1l0,0l0,0l0,0l0,0l0,0l0,0l-0.2-0.1
				c-0.1,0-0.6-0.1-0.6-0.1s0,0,0.1,0C95.5,33.8,95.6,33.8,95.6,33.8z"/>
			<path d="M95.3,34c-0.1,0-0.3-0.1-0.3-0.1l0,0C95,33.9,95.4,34,95.3,34C95.4,34,95.4,34,95.3,34L95.3,34C95.4,34,95.3,34,95.3,34z
				"/>
			<path d="M101.2,90.3c-0.1,0-0.3,0.1-0.4,0.1l0,0l0,0l0,0l0,0l0,0l0,0l0,0l0,0c0.2,0.1,0.4,0.1,0.7,0.1l0,0l0,0l0,0l0,0l0,0l0,0
				l0,0l0,0C101.5,90.5,101.5,90.3,101.2,90.3z"/>
			<path d="M90.4,33.1L90.4,33.1c0.2,0,0.2,0,0.2,0C90.5,33.2,90.5,33.2,90.4,33.1c0.2,0,0.3,0,0.4,0c0,0-0.6,0-0.7,0
				C90.3,33.2,90.3,33.2,90.4,33.1c-0.1,0-0.2,0-0.2,0C90.3,33.2,90.3,33.2,90.4,33.1c-0.2,0-0.4,0.1-0.6,0c0,0,0,0,0.1,0
				c0,0,0,0-0.1,0c0.1,0,0.2,0,0.3,0c-0.1,0-0.1,0-0.1,0h0.1c-0.3,0-0.3,0-0.4,0l0,0c-0.3,0-0.3,0-0.3,0c0.1,0,0.1,0,0.2,0
				c0,0-0.4,0-0.5,0l0,0c-0.2,0-0.3,0-0.5,0c0.1,0,0.1,0,0.2,0l0,0c0.2,0,0.2,0,0.2,0c-0.3,0-0.3,0-0.3,0l0,0h-0.4
				c0.2,0,0.2,0,0.2,0c-0.1,0-0.1,0-0.2,0l0,0c-0.1,0-0.3,0-0.4,0c0.1,0,0.1,0,0.7,0l0,0c0.1,0,0.2,0,0.3,0c-0.1,0-0.1,0-0.2,0
				c0.1,0,0.1,0,0.8,0l0,0c0.2,0,0.2,0,0.2,0c-0.3,0-0.4,0-0.4,0c0.3,0,0.6,0,0.9,0l0,0c0.4,0,0.4,0,0.4,0l0,0c0.5,0,0.5,0,0.7,0
				c0.1,0,0.2,0,0.2,0s0,0-0.1,0c0.1,0,0.1,0,0.2,0h-0.1c0.1,0,0.2,0,0.2,0c-0.1,0-0.3,0-0.4,0c0.1,0,0.2,0,0.3,0
				c-0.1,0-0.2,0-0.4,0c0.1,0,0.1,0,0.2,0l0,0h0.1c-0.2,0-0.3,0-0.5,0c0,0,0,0,0.1,0c-0.1,0-0.2,0-0.3,0h0.1
				C90.7,33.1,90.5,33.1,90.4,33.1z"/>
			<path d="M71.7,76C71.6,76,71.6,76,71.7,76C71.6,76,71.6,76,71.7,76c0,0.2,0.1,0.2,0.1,0.2l0,0C71.8,76.1,71.8,76,71.7,76z"/>
			<path d="M96.1,34.1l0.2,0.1l0,0l0,0l0,0l0,0l0,0l0,0l0,0l0,0c0.1,0,0.2,0.1,0.3,0.1l0,0l0,0l0,0l0,0c0,0,0,0-0.1,0s-0.1,0-0.1,0
				h0.1l0,0c0,0-0.1,0-0.2-0.1h-0.1l0,0l0,0l0,0l0,0l0,0l0,0l0,0l0,0l0,0l0,0l0,0C96.3,34.1,96.3,34.1,96.1,34.1L96.1,34.1
				L96.1,34.1z"/>
			<polygon points="88.7,34.1 88.7,34.1 88.6,34.1 			"/>
			<path d="M92.1,34.6c-0.1,0.1,0,0.1,0,0.2c0,0-0.1,0-0.1,0.1l0,0c0.2,0,0.2,0,0.2,0.1c0,0-0.1,0.1-0.2,0.1c0,0.2-0.2,0.3,0,0.5
				c0.1,0.1,0.1,0,0.1,0c0.1-0.1,0.1,0.1,0.1,0.1c0.1,0,0.2,0,0.3,0c-0.2-0.2-0.3-0.4-0.3-0.5v-0.1C92.1,35.1,92.2,35,92.1,34.6
				c0.1,0.1,0.1,0.2,0.1,0.2h0.1l0,0c0,0,0-0.1,0.1-0.2l0,0c0.1,0,0.1,0,0.1,0s0.1-0.1,0.1-0.3l0,0l0,0c-0.1,0-0.1,0-0.2,0.2h-0.1
				C92.2,34.4,92.2,34.5,92.1,34.6C92.1,34.5,92.1,34.5,92.1,34.6z"/>
			<path d="M88.6,34.1L88.6,34.1L88.6,34.1z"/>
			<path d="M81.9,35.6c0.5-0.2,0.5-0.2,0.5-0.2s0,0,0,0.1l1.9-0.3l0,0l0,0l0,0l0,0c0,0,0.1,0,0.2,0l0,0l0,0l0,0l0,0l0,0l0,0l0,0l0,0
				c0,0,1.2,0,1.5-0.2h-0.1c0,0,0.1,0,0.1-0.1c-0.2,0-0.2,0-0.3,0c-0.1,0-0.1,0-0.2,0l0,0c0.1-0.1,0.1-0.1,0.3-0.1h0.1
				c0.1-0.1,0.2-0.1,0.2-0.1l0,0c-0.1,0-0.1,0-0.2,0.1l0,0H86l0,0c0,0,0.3-0.1,0.5-0.2l0,0l0,0h-0.1c0.1-0.1,0.1-0.1,0.2,0
				c-0.1,0-0.1,0-0.2,0.1s-0.2,0.1-0.3,0.2c0.1,0,0.1,0,0.2-0.1c-0.1,0.1-0.2,0.1-0.3,0.2c0.4-0.1,0.8-0.5,1.3-0.6
				c-0.2,0.1-0.3,0.2-0.3,0.2l0,0l0,0l0,0l0,0l0,0l0,0l0,0c0,0,0,0,0.1,0c0,0,0.1,0,0.2,0l0,0c0.4-0.1,0.4-0.2,0.4-0.2l0,0h0.1
				c-0.1,0-0.2,0.1-0.3,0.1l0,0l0,0c0.2,0,0.4-0.2,0.6-0.2c0,0-0.1,0-0.1,0.1l0,0c0.1,0,0.1,0,0.2,0s0.2-0.2,0.4-0.2
				c0.3-0.1,0.5-0.2,0.8-0.3c0,0-0.1,0-0.1,0.1l0,0c-0.4,0-0.4,0-0.4,0c0.4-0.1,0.4-0.1,0.7-0.2c0,0,0.4-0.1,0.5-0.2
				c-0.3,0.1-0.3,0.1-0.4,0.1c0.3-0.1,0.3-0.1,0.4-0.1H90l0,0l0,0c-0.1,0-0.1,0-0.2,0c0.2,0,0.2,0,0.3-0.1l0,0c0.1,0,0.2,0,0.2-0.1
				c0.3-0.1,0.7-0.1,1-0.2c0.1,0,0.1,0,0.2,0c-0.1,0-0.1,0-0.3,0c-0.1,0-0.2,0-0.3,0c0.3-0.1,0.3-0.1,0.3-0.1c0.2,0,0.4-0.1,0.5-0.1
				c0,0-0.4,0.1-0.7,0.1c0.3-0.1,0.6-0.1,0.9-0.2c-0.2,0-0.4,0.1-0.6,0.1c0.2,0,0.4-0.1,0.6-0.1c-0.2,0-0.2,0-0.3,0
				c0.1,0,0.2,0,0.2,0c-0.3,0-0.6,0.1-1,0.1c0.5-0.1,0.5-0.1,0.6-0.1c-0.2,0-0.3,0-0.5,0H91h-0.1H91c-0.1,0-0.2,0-0.3,0h0.1
				c-1.2,0.1-1.2,0.1-1.5,0c0,0-0.3,0-0.6,0l0,0h0.1c0,0-0.4,0-0.5,0l0,0c-0.1,0-0.2,0-0.3,0l0,0c0,0,0,0,0.1,0s0.1,0,0.1,0
				c-0.3,0-0.5,0.1-0.6,0.1c0.1,0,0.1,0,0.2,0h0.1H88c-0.3,0-0.3,0-0.4,0.1l0,0c0,0-0.7,0.2-0.9,0.2c-0.3,0-0.6,0.1-0.9,0.2h0.1
				c-0.1,0-0.2,0-0.2,0l0,0l0,0l0,0l0,0l0,0l0,0l0,0c0,0,0,0-0.1,0s-0.1,0-0.2,0.1c0.2,0,0.3-0.1,0.4-0.1c-0.3,0.1-0.6,0.3-1,0.2
				c0.2-0.1,0.2-0.1,0.3-0.1l0,0c-0.3,0.1-0.6,0.2-0.9,0.3h-0.1l0,0c-0.8,0-1.6,0.3-2.8,0.7l0,0l0,0l0,0l0,0l0,0l0,0l0,0l0,0
				c-0.8,0.3-2,0.8-2.1,1h0.1l0,0c0,0,0,0,0,0.1h0.1c-0.3,0.1-0.6,0.2-0.8,0.4c0,0,0,0,0,0.1c0.2-0.1,0.3-0.1,0.4-0.1
				C80.1,36.2,81,35.8,81.9,35.6z"/>
			<path d="M93.1,34.2c0,0,0,0.1,0.1,0.2c0,0,0,0,0.1,0.1l0.1,0.1l-0.1-0.2C93.2,34.3,93.1,34.2,93.1,34.2z"/>
			<path d="M91.7,36L91.7,36c-0.1,0.1-0.1,0.1-0.2,0.2c0.1,0,0.1,0,0.2,0C91.7,36.1,91.7,36.1,91.7,36L91.7,36z"/>
			<path d="M93.2,33.8C93.2,33.8,93.3,33.8,93.2,33.8L93.2,33.8L93.2,33.8L93.2,33.8L93.2,33.8L93.2,33.8L93.2,33.8L93.2,33.8
				L93.2,33.8L93.2,33.8C93.3,33.8,93.3,33.8,93.2,33.8L93.2,33.8C93.2,33.7,93.2,33.7,93.2,33.8c-0.2-0.1-0.2-0.2-0.3-0.2l0,0l0,0
				C92.9,33.6,93.2,33.9,93.2,33.8C93.3,33.9,93.3,33.9,93.2,33.8z"/>
			<path d="M92.6,33.6L92.6,33.6L92.6,33.6L92.6,33.6L92.6,33.6L92.6,33.6C92.7,33.6,92.7,33.6,92.6,33.6
				C92.7,33.6,92.7,33.6,92.6,33.6C92.7,33.6,92.7,33.6,92.6,33.6C92.7,33.6,92.7,33.6,92.6,33.6L92.6,33.6
				C92.7,33.6,92.7,33.6,92.6,33.6L92.6,33.6L92.6,33.6C92.7,33.6,92.7,33.6,92.6,33.6C92.7,33.6,92.7,33.6,92.6,33.6
				C92.7,33.6,92.7,33.6,92.6,33.6C92.6,33.5,92.6,33.5,92.6,33.6L92.6,33.6L92.6,33.6L92.6,33.6L92.6,33.6
				C92.5,33.5,92.6,33.5,92.6,33.6z"/>
			<path d="M92.9,33.7L92.9,33.7c0.1,0,0.1,0,0.2,0l0,0l0,0C93,33.7,92.9,33.7,92.9,33.7L92.9,33.7C92.9,33.6,92.9,33.6,92.9,33.7
				L92.9,33.7L92.9,33.7L92.9,33.7L92.9,33.7C92.8,33.6,92.8,33.6,92.9,33.7C92.8,33.6,92.8,33.6,92.9,33.7L92.9,33.7
				C92.7,33.6,92.8,33.7,92.9,33.7z"/>
			<path d="M93.3,34L93.3,34L93.3,34L93.3,34L93.3,34c0,0,0.1,0.1,0.2,0.1h0.1l0,0l0,0l0,0l0,0l0,0l0,0l0,0c0,0,0,0-0.1-0.1
				C93.5,34,93.5,34,93.3,34L93.3,34z"/>
			<path d="M113.4,73C113.4,73,113.5,73,113.4,73c0.1-0.2,0.1-0.3,0-0.2c-0.1,0-0.2,0.2-0.1,0.3c0,0,0,0-0.1,0
				c-0.2,0.1-0.2,0.3,0,0.4C113.3,73.5,113.5,73.3,113.4,73z"/>
			<path d="M113.2,72.6L113.2,72.6c0.1-0.2,0.1-0.2,0-0.2S113.1,72.5,113.2,72.6L113.2,72.6c-0.1,0-0.1,0.1-0.1,0.2
				C113,72.7,113.1,72.7,113.2,72.6C113.1,72.6,113.1,72.6,113.2,72.6z"/>
			<path d="M113.4,74.9c0.1-0.3,0.1-0.3,0.1-0.3c0-0.1,0-0.1,0-0.1l0,0h-0.1c-0.1,0,0-0.1-0.1-0.2l0,0l0,0c0,0.2-0.1,0.3-0.1,0.4
				S113.2,74.8,113.4,74.9C113.3,75,113.4,75,113.4,74.9z"/>
			<path d="M113,71.8L113,71.8L113,71.8L113,71.8L113,71.8L113,71.8L113,71.8L113,71.8c0-0.6,0-0.7,0-0.7c0-0.1-0.1-0.2-0.2-0.2
				s-0.2,0.2-0.1,0.3c0,0.1,0.1,0.2,0.2,0.1C112.9,71.5,112.9,71.7,113,71.8L113,71.8z"/>
			<path d="M113.3,75.4L113.3,75.4C113.2,75.4,113.2,75.4,113.3,75.4c-0.2,0.1-0.1,0.3-0.1,0.3c0.1,0.1,0.2,0.1,0.3,0.1v-0.1
				C113.6,75.5,113.5,75.4,113.3,75.4z"/>
			<path d="M113.1,70.4C113.2,70.4,113.2,70.3,113.1,70.4c0.1-0.3-0.1-0.3-0.1-0.3c0-0.2-0.1-0.2-0.2-0.2c0,0-0.2,0.1-0.1,0.4
				C113.1,70.4,113.1,70.4,113.1,70.4z"/>
			<path d="M116.8,67.5c-0.3-0.4-0.5-0.3-0.5-0.3c-0.1,0-0.1,0.1-0.1,0.2c0,0.2,0.1,0.4,0.1,0.7c0,0.2-0.1,0.4-0.1,0.6v0.1
				c0,0.3,0.2,0.4,0.3,0.7c0.1,0.1,0.1,0.3,0.1,0.4l0,0c0,0,0,0.1,0.1,0.1c0.3,0.2,0.8-0.4,0.8-0.8c0-0.1-0.2-0.8-0.2-0.9
				C117,68,116.9,67.7,116.8,67.5z"/>
			<path d="M112.2,67c-0.1-0.1-0.2-0.1-0.2-0.1c0,0.3-0.1,0.5,0.1,0.7c0.1,0.1,0.3,0.1,0.3-0.1l-0.1-0.4C112.2,67,112.2,67,112.2,67
				z"/>
			<path d="M98,85.9c-0.1,0.1-0.3,0.1-0.4,0.2c-0.2,0.1-0.1,0.4-0.3,0.5c0,0,0,0.1-0.1,0.1c-0.2,0.1-0.3,0.2-0.7,0.2
				c-0.1,0.5-0.3,0.5-1.7,0.9c0.2,0.4-0.5,0.7-0.2,1.2c0.1,0.2,0.3,0.3,0.3,0.6v0.1c-0.1,0.4-0.4,0.7-0.5,1c-0.2,0-0.3,0-0.5,0
				c0.1,0.1,0.2,0.5,0,0.9C94,91.8,94,91.8,94,92c0,0.3,0,0.3,0.1,0.6c0.4,0.1,0.8,0.3,1.2,0.2c0.2,0,0.6-0.1,0.8-0.5
				c0.2-0.3,0.1-0.8,0.3-1.1c0.2-0.3,0.6-0.4,0.8-0.7c0.1-0.1,0.1-0.1,0.3-1c0.1-0.3,0.1-0.3,0.5-0.9c0.2-0.3,0.2-0.6,0.2-0.8
				c0.1-0.3,0.4-0.3,0.6-0.6v-0.1c0.1-0.2,0.1-0.3,0-0.6c0-0.1,0-0.1,0.1-0.6c0-0.1,0-0.1-0.7-1C98.2,85.6,98,85.9,98,85.9z"/>
			<path d="M98.3,83.7c0.1,0,0.1-0.1,0.2-0.2c0.1,0,0.1-0.1,0.2-0.1l0,0l0.1-0.1c0,0,0-0.1-0.1-0.2c-0.3,0-0.5,0.2-0.5,0.2
				s-0.1,0.2,0,0.3C98.1,83.7,98.2,83.7,98.3,83.7z"/>
			<path d="M99.7,82.8c-0.1-0.1-0.2-0.1-0.4-0.1c0,0,0,0.1-0.1,0.1c0,0-0.1,0-0.1,0.1c-0.1,0.1,0.1,0.2,0.2,0.2
				C99.5,83,99.7,82.8,99.7,82.8L99.7,82.8z"/>
			<path d="M100.3,101L100.3,101L100.3,101c-0.2,0-0.3,0-0.4,0.1l0,0c0,0,0,0-0.1,0c-0.1,0.1-0.1,0.1-0.2,0.1c0,0,0,0,0,0.1
				s0,0,0.1,0s0.1,0,0.2,0s0.2,0,0.2,0c0.1,0,0.2-0.1,0.2-0.1C100.4,101.2,100.4,101.1,100.3,101C100.4,101.1,100.3,101.1,100.3,101
				L100.3,101z"/>
			<path d="M96.9,83.7C96.9,83.6,96.9,83.6,96.9,83.7c0.2-0.1,0.3-0.1,0.4-0.1s0.1,0,0.1-0.1s-0.1-0.3-0.2-0.4
				c-0.3,0-0.6,0.3-0.5,0.6C96.8,83.7,96.8,83.7,96.9,83.7z"/>
			<path d="M97.3,83.5L97.3,83.5L97.3,83.5z"/>
			<path d="M113.5,71.4c-0.2,0-0.3,0.4-0.2,0.5c0,0,0.1,0.1,0.1,0c0.1-0.1,0-0.1,0.1-0.2c0-0.1,0.1-0.1,0.2-0.1l0,0c0,0,0,0,0-0.1
				C113.7,71.5,113.6,71.4,113.5,71.4z"/>
			<path d="M100.4,90.9c-0.2,0-0.4,0.2-0.3,0.3h0.1l0,0h0.1c0.1,0,0.2,0,0.3,0c0.1,0,0.1-0.1,0.1-0.1
				C100.6,91,100.6,90.9,100.4,90.9z"/>
			<path d="M87.7,32.9L87.7,32.9L87.7,32.9c0.1,0,0.2,0,0.3,0c0.1,0,0.2,0,0.2,0c-0.1,0-0.2,0-0.3,0C87.8,32.9,87.7,32.9,87.7,32.9z
				"/>
			<path d="M86.9,32.9L86.9,32.9L86.9,32.9c0.1,0,0.3,0,0.4,0l0,0c0,0,0,0-0.1,0l0,0C87.2,32.9,87,32.9,86.9,32.9L86.9,32.9
				L86.9,32.9C86.8,32.9,86.8,32.9,86.9,32.9C86.8,32.9,86.8,32.9,86.9,32.9z"/>
			<path d="M87.6,32.8L87.6,32.8L87.6,32.8L87.6,32.8c0.2,0,0.2,0,0.3,0c0,0,0,0-0.1,0l0,0h0.1l0,0c0.1,0,0.2,0,0.3,0h0.2h-0.1
				c0,0,0,0,0.1,0l0,0h0.1h0.1l0,0l0,0l0,0l0,0l0,0l0,0l0,0l0,0l0,0c0,0,0,0-0.5,0c-0.1,0-0.1,0-0.1,0l0,0c0.1,0,0.3,0,0.4,0l0,0
				c0,0,0,0-0.3-0.1l0,0l0,0c-0.3,0-0.3,0-0.3,0c0.1,0,0.2,0,0.3,0l0,0c-0.1,0-0.2,0-0.3,0C87.8,32.8,87.8,32.8,87.6,32.8
				C87.7,32.8,87.7,32.8,87.6,32.8C87.7,32.8,87.7,32.8,87.6,32.8z"/>
			<path d="M91.5,33.2c0.2,0,0.3,0,0.5-0.1c-0.1,0-0.1,0-0.1,0l0,0C91.7,33.2,91.5,33.2,91.5,33.2L91.5,33.2L91.5,33.2L91.5,33.2z"
				/>
			<path d="M89.6,33c-0.2,0-0.3,0-0.4,0l0,0l0,0c0.1,0,0.1,0,0.2,0h-0.1C89.2,33,89.2,33,89.6,33c0,0,0.1,0,0.2,0l0,0c0,0,0,0,0.2,0
				c0,0,0,0,0.1,0l0,0c0,0,0,0,0.1,0c0,0,0,0,0.1,0C90.2,33,90.1,33,89.6,33L89.6,33z"/>
			<path d="M89.7,33L89.7,33c0,0-0.1,0-0.2,0h-0.1c-0.2,0-0.4,0-0.4,0c0.1,0,0.2,0,0.3,0l0,0l0,0l0,0l0,0l0,0l0,0l0,0l0,0l0,0l0,0
				l0,0l0,0l0,0l0,0l0,0l0,0C89.7,33.1,89.7,33.1,89.7,33C89.7,33.1,89.7,33.1,89.7,33L89.7,33L89.7,33z"/>
			<path d="M87.7,33c0.1,0,0.1,0,0.2,0s0.3,0,0.4,0s0.1,0,0.2,0h0.1l0,0l0,0c0,0,0,0,0.1,0l0,0c-0.1,0-0.1,0-0.1,0l0,0
				c-0.1,0-0.2,0-0.3,0l0,0l0,0l0,0l0,0l0,0l0,0l0,0l0,0C87.7,33,87.7,33,87.7,33L87.7,33z"/>
			<path d="M87.7,33.1c0.3,0,0.3,0,0.4,0c-0.1,0-0.2,0-0.2,0C87.9,33,87.8,33,87.7,33.1L87.7,33.1c0,0-0.3,0-0.2,0
				C87.6,33.1,87.6,33.1,87.7,33.1L87.7,33.1z"/>
			<path d="M92.1,33.5C92.1,33.5,92.1,33.4,92.1,33.5C92.1,33.4,92.1,33.4,92.1,33.5L92.1,33.5C92.1,33.4,92.1,33.4,92.1,33.5
				L92.1,33.5C92.1,33.4,92.1,33.5,92.1,33.5L92.1,33.5C92,33.5,92,33.5,92.1,33.5C92,33.6,92,33.6,92.1,33.5L92.1,33.5L92.1,33.5
				L92.1,33.5C92,33.6,92,33.6,92.1,33.5L92.1,33.5C92,33.7,92.1,33.6,92.1,33.5L92.1,33.5L92.1,33.5C92.1,33.6,92.1,33.6,92.1,33.5
				C92.1,33.6,92.1,33.6,92.1,33.5L92.1,33.5L92.1,33.5z"/>
			<path d="M89,33c0.1,0,0.2,0,0.3,0c-0.1,0-0.1,0-0.2,0H89c0,0-0.1,0-0.2,0l0,0C88.8,32.9,88.9,32.9,89,33L89,33z"/>
			<path d="M88.4,33.1L88.4,33.1C88.4,33.1,88.5,33.1,88.4,33.1C88.5,33.1,88.5,33.1,88.4,33.1L88.4,33.1L88.4,33.1L88.4,33.1
				L88.4,33.1c0.2,0,0.2,0,0.3,0c0,0-0.5,0-0.6,0l0,0l0,0l0,0C88.3,33.1,88.3,33.1,88.4,33.1L88.4,33.1z"/>
			<path d="M92,33.5l0.1-0.2l0,0l0,0c0,0,0,0,0,0.1l0,0C92.1,33.4,92,33.4,92,33.5C92,33.4,92,33.4,92,33.5L92,33.5L92,33.5z"/>
			<path d="M83.2,33.8L83.2,33.8L83.2,33.8C83.2,33.9,83.3,33.8,83.2,33.8C83.3,33.8,83.3,33.9,83.2,33.8c0.2,0,0.4,0,0.5-0.1h0.1
				c0,0,0,0-0.1,0s-0.1,0-0.1,0l0,0c-0.1,0-0.1,0-0.2,0s-0.1,0-0.1,0l0,0C83.2,33.7,83.1,33.7,83.2,33.8
				C83.1,33.8,83.1,33.8,83.2,33.8L83.2,33.8z"/>
			<path d="M91.9,33.4L91.9,33.4L91.9,33.4C91.8,33.5,91.8,33.5,91.9,33.4L91.9,33.4L91.9,33.4L91.9,33.4L91.9,33.4L91.9,33.4
				l-0.1,0.2l0,0l0,0l0,0l0,0C91.9,33.5,91.9,33.5,91.9,33.4C91.9,33.5,91.9,33.5,91.9,33.4C91.9,33.5,91.9,33.5,91.9,33.4
				C91.9,33.5,91.9,33.5,91.9,33.4C91.9,33.5,91.9,33.5,91.9,33.4L91.9,33.4C91.9,33.5,91.9,33.4,91.9,33.4z"/>
			<path d="M91.9,33.6C91.9,33.6,91.9,33.7,91.9,33.6C91.9,33.7,91.9,33.7,91.9,33.6C92,33.6,92,33.5,91.9,33.6
				C92,33.5,91.9,33.5,91.9,33.6z"/>
			<path d="M92.4,33.5C92.4,33.5,92.4,33.4,92.4,33.5L92.4,33.5l-0.2-0.2L92.4,33.5C92.3,33.5,92.4,33.5,92.4,33.5z"/>
			<path d="M88.5,32.7L88.5,32.7L88.5,32.7c0.1,0,0.3,0,0.3,0.1l0,0c0.1,0,0.2,0,0.3,0c0.1,0,0.1,0,0.2,0h0.1l0,0l0,0l0,0l0,0l0,0
				C89.2,32.7,88.7,32.7,88.5,32.7L88.5,32.7L88.5,32.7z"/>
			<path d="M82.1,38.7c0.2-0.2,0.2-0.2,0.2-0.2l0,0c-0.1,0-0.1,0-0.4,0.3c-0.2,0.2-0.4,0.3-0.6,0.5c-0.1,0.1-0.2,0.3-0.4,0.4
				c-0.3,0.3-0.3,0.4-0.3,0.4l0,0c0.3-0.3,0.5-0.4,0.5-0.3c0.1,0.1-0.1,0.2-0.3,0.2c-0.1,0-0.2,0.2-0.3,0.3c0.1,0,0.1,0.1,0.2,0.1
				c-0.2,0.2-0.2,0.3-0.2,0.3c0.1,0.1-0.2,0.2-0.2,0.2c-0.1,0-0.1,0-0.2,0c0.1-0.1-0.1,0.1-0.2,0.1c0,0-0.2,0.2-0.2,0.3
				c-0.4,0.1-0.4,0.2-0.4,0.3c0.1,0,0.1,0,0.2,0c0,0,0,0,0,0.1v0.1c0.1,0,0.1,0,0.2-0.1c0.2-0.1,0.2-0.1,0.2-0.1
				c-0.3,0.3-0.5,0.3-0.7,0.3c-0.1,0-0.4,0-0.8,0.4c0.1,0,0.3,0,0.4-0.2c0,0.1,0.1,0.2,0.1,0.2c0.1-0.1,0.2-0.2,0.2-0.2h0.1
				c0.1,0,0.1,0,0.2,0s0.1,0,0.2-0.1l0,0c0,0,0,0,0,0.1l0.5,0.1c0.2,0,0.3-0.2,0.4-0.3c-0.1,0-0.1-0.1-0.1-0.1
				c0.3-0.1,0.4-0.1,0.4-0.3c0.2-0.1,0.2-0.1,0.2-0.1l0.1-0.1c0.1-0.2-0.1-0.1-0.1-0.1c0.1-0.2,0-0.2,0-0.2c0.1-0.1,0.1-0.1,0.2-0.2
				c0.1-0.1,0.1-0.2,0.1-0.3c0.1-0.2,0.2-0.3,0.3-0.5c0.1-0.2,0.1-0.3,0.1-0.3h-0.1c-0.1,0,0.1-0.2,0.2-0.3c0.1,0,0.2,0,0.3,0
				c0.1,0,0.2-0.2-0.2-0.4c0.1-0.1,0.2-0.2,0.3-0.2c0.1,0,0.2-0.1,0.1-0.2C82.3,38.7,82.2,38.8,82.1,38.7z"/>
			<path d="M84.6,34.3C84.6,34.3,84.6,34.2,84.6,34.3c0,0,0.1-0.1,0.2-0.1l0,0l0,0l0,0l0,0l0,0c-0.2,0-0.3,0.1-0.5,0.1l0,0
				c-0.1,0-0.1,0-0.2,0.1l0,0C84.3,34.4,84.3,34.4,84.6,34.3L84.6,34.3z"/>
			<path d="M87.2,33.1L87.2,33.1c0,0-0.1,0-0.2,0l0,0c0,0-0.2,0-0.5,0c-0.1,0-0.3,0-0.4,0l0,0c0.1,0,0.1,0,0.2,0l0,0l0,0
				c0.1,0,0.1,0,0.2,0l0,0l0,0h0.6C87.1,33.1,87.2,33.1,87.2,33.1z"/>
			<path d="M86.5,33.4c0.1,0,0.1,0,0.2,0h0.1c0.2,0,0.2,0,0.3,0c-0.1,0-0.1,0-0.1,0h0.1H87l0,0l0,0C86.7,33.4,86.7,33.4,86.5,33.4
				L86.5,33.4L86.5,33.4L86.5,33.4c-0.2,0.1-0.2,0.1-0.2,0.1C86.3,33.4,86.4,33.4,86.5,33.4L86.5,33.4z"/>
			<path d="M78.1,41.5c0.1,0,0.2-0.1,0.3-0.1c0.1,0,0.2,0,0.4,0c0,0,0.1,0,0.3-0.1c0.4-0.2,0.8-0.5,1.1-0.8l0,0l0,0
				c0.2-0.2,0.3-0.3,0.3-0.3s0,0,0.2-0.3c0.2-0.2,0.2-0.2,0.2-0.2l0,0c-0.1,0-0.2,0-0.2,0.1c-0.2,0.1-0.2,0.1-0.2,0.1
				c-0.2,0.1-0.3,0.5-0.7,0.4c-0.3-0.1-0.6,0.3-0.6,0.4l0,0l0,0l0,0l0,0l0,0l0,0l0,0l0,0l0,0l0,0c0,0,0,0-0.3,0.3H79
				c-0.1,0.1-0.1,0.1-0.2,0C78.6,40.8,78,41.5,78.1,41.5C78,41.5,78.1,41.5,78.1,41.5z"/>
			<path d="M88.7,34.1L88.7,34.1c0,0-0.2,0.1-0.4,0.2c0.1,0,0.2-0.1,0.2-0.1C88.6,34.1,88.6,34.1,88.7,34.1s0.2,0,0.2,0
				C88.9,34,88.8,34.1,88.7,34.1L88.7,34.1z"/>
			<path d="M87.2,35c0,0-0.1,0-0.2,0.1l0,0C87.1,35.1,87.2,35.1,87.2,35C87.2,35.1,87.2,35.1,87.2,35c0.1,0,0.2,0,0.2,0l0,0
				C87.3,35,87.2,35,87.2,35z"/>
			<path d="M88.3,33c0.1,0,0.2,0,0.2,0l0,0C88.5,33,88.5,33,88.3,33L88.3,33c-0.1,0-0.1,0-0.2,0c0,0-0.2,0-0.3,0
				C87.9,33,88.3,33,88.3,33z"/>
			<path d="M83.3,37.5C83.3,37.5,83.3,37.6,83.3,37.5C83.2,37.6,83.2,37.6,83.3,37.5C83.2,37.7,83.3,37.6,83.3,37.5
				c0.2,0,0.3-0.2,0.2-0.2C83.5,37.4,83.3,37.5,83.3,37.5z"/>
			<path d="M84.6,35.9L84.6,35.9c-0.4,0.1-0.4,0.1-0.4,0.2c0,0,0-0.1-0.1-0.1c0.2-0.1,0.3-0.1,0.3-0.1c-0.1,0-0.1,0-0.4,0.1
				s-0.3,0.1-0.3,0.1s0,0,0.5-0.3c0.2-0.1,0.2-0.1,0.2-0.1s0,0-0.3,0.2c-0.2,0-0.4,0.1-0.4,0.1l0,0c-0.2,0.1-0.2,0.1-0.2,0.1
				l-0.3,0.1c0.2,0,0.2,0,0.2,0s-0.1,0.1-0.4,0.3c0.1,0,0.1,0,0.1,0.1s0,0.2,0.1,0.1c0.2,0,0.3-0.1,0.5-0.1c0.1,0,0.2,0,0.3,0
				c0.1,0,0.2-0.1,0.3-0.1c0.1-0.1,0.1-0.1,0.2-0.2c0,0,0,0,0.1,0C84.4,36.2,84.5,36.1,84.6,35.9c-0.1,0.1-0.2,0.2-0.2,0.2
				C84.5,36,84.6,36,84.6,35.9z"/>
			<path d="M87.3,33.2c0.1,0,0.1,0,0.2,0l0,0c0,0,0,0,0.1,0s0.3,0,0.4,0c-0.1,0-0.1,0-0.1,0H88c-0.1,0-0.1,0-0.2,0
				c0,0,0-0.1,0.1-0.1c0,0,0,0,0.6,0c-0.1,0-0.1,0-0.2,0h-0.1c-0.2,0-0.5,0-0.7,0L87.3,33.2C87.3,33.2,87.2,33.2,87.3,33.2z"/>
			<path d="M90.2,33.1c-0.9,0-0.9,0-0.9,0c0.2,0,0.4,0,0.6,0l0,0l0,0l0,0l0,0l0,0l0,0l0,0l0,0c0.1,0,0.2,0,0.2,0H90
				c0.1,0,0.1,0,0.4,0h0.7C90.9,33.1,90.2,33.1,90.2,33.1C90.1,33.1,90.1,33.1,90.2,33.1z"/>
			<path d="M89.1,32.9L89.1,32.9C89.1,32.9,89,32.9,89.1,32.9s0.2,0,0.3,0c-0.1,0-0.1,0-0.1,0l0,0c0.1,0,0.1,0,0.1,0s0,0,0.1,0l0,0
				l0,0l0,0l0,0l0,0l0,0l0,0l0,0c0.1,0,0.2,0,0.3,0l0,0l0,0c-0.1,0-0.3,0-0.3,0h-0.2l0,0C89.3,32.9,89.3,32.9,89.1,32.9z"/>
			<path d="M91.3,33.6C91.4,33.6,91.4,33.6,91.3,33.6c0,0-0.1,0-0.2,0l0,0l0,0H91c0.1,0,0.1,0,0.1,0s0,0-0.1,0
				C91.1,33.6,91.2,33.6,91.3,33.6C91,33.7,91,33.7,91,33.7l0,0c0,0-0.1,0.1-0.5,0.3c0,0,0,0-0.2,0.2c0.3-0.2,0.5-0.3,0.8-0.5
				L90.8,34c-0.1,0.1-0.1,0.1-0.1,0.1c0.1,0,0.3-0.2,0.3-0.2l0,0C91,33.9,91.2,33.7,91.3,33.6C91.3,33.7,91.3,33.7,91.3,33.6
				c-0.1,0.2-0.1,0.2-0.2,0.2C91.2,33.8,91.3,33.7,91.3,33.6C91.3,33.7,91.4,33.6,91.3,33.6C91.4,33.6,91.4,33.6,91.3,33.6
				C91.4,33.6,91.3,33.6,91.3,33.6z"/>
			<path d="M86,33c0.3,0,0.7,0,1,0h0.2l0,0c-0.1,0-0.2,0-0.3,0c0.1,0,0.1,0,0.2,0l0,0l0,0c-0.1,0-0.2,0-0.3,0h0.1l0,0h-0.1l0,0
				c-0.2,0-0.4,0-0.4,0C86.2,33,86.1,33,86,33c-0.2,0-0.2,0-0.3,0C85.8,33,85.9,33,86,33L86,33L86,33z"/>
		</g>
		<g>
			<path d="M-0.2,121.2v-14.6h3.5c1.5,0,2.6,0.7,3.4,2.2s1.1,3.1,1.1,5.1c0,2.2-0.4,4-1.2,5.3s-1.8,2.1-3.1,2.1L-0.2,121.2
				L-0.2,121.2z M2.5,117.9h0.7c0.5,0,0.8-0.4,1.2-1.1c0.3-0.7,0.5-1.7,0.5-2.9c0-1.1-0.1-2-0.4-2.8s-0.7-1.2-1.2-1.2H2.5V117.9z"/>
			<path d="M12.9,121.5c-1.3,0-2.3-0.7-3.1-2.1s-1.2-3.2-1.2-5.5c0-2.2,0.4-4,1.1-5.4c0.8-1.4,1.8-2.1,3.2-2.1c1.2,0,2.3,0.7,3.1,2
				c0.8,1.3,1.2,3.1,1.2,5.4s-0.4,4.2-1.2,5.6C15.1,120.8,14.1,121.5,12.9,121.5z M12.8,118.2c0.5,0,0.8-0.3,1-1s0.3-1.9,0.3-3.6
				c0-2.5-0.4-3.8-1.3-3.8c-0.9,0-1.4,1.4-1.4,4.3C11.5,116.8,12,118.2,12.8,118.2z"/>
			<path d="M17.4,117l2.6-0.8c0.2,1.2,0.8,1.8,1.7,1.8c0.7,0,1-0.3,1-0.9c0-0.3-0.1-0.6-0.2-0.7c-0.2-0.2-0.5-0.3-0.9-0.5
				c-1.6-0.5-2.6-1.1-3-1.9c-0.5-0.8-0.7-1.7-0.7-2.8c0-1.4,0.3-2.5,1-3.4c0.6-0.9,1.6-1.4,2.8-1.4c1.8,0,3,1.2,3.6,3.6l-2.3,1.1
				c-0.2-1-0.7-1.5-1.4-1.5c-0.6,0-0.9,0.3-0.9,0.9c0,0.3,0.1,0.5,0.2,0.6s0.4,0.3,0.8,0.4c1.1,0.4,1.8,0.7,2.3,1s0.8,0.8,1.1,1.5
				s0.5,1.5,0.5,2.4c0,1.5-0.4,2.7-1.1,3.6s-1.7,1.4-2.9,1.4C19.2,121.5,17.9,120,17.4,117z"/>
			<path d="M36.6,117.8v3.5h-6.8v-14.6h6.8v3.4h-4.1v2.1h3.3v3.2h-3.3v2.4H36.6z"/>
			<path d="M42.5,121.3c-0.3,0.1-0.6,0.2-0.9,0.2c-1.3,0-2.3-0.7-3.1-2.1s-1.2-3.2-1.2-5.4c0-2.2,0.4-4,1.1-5.4
				c0.8-1.4,1.8-2.1,3.2-2.1c1.2,0,2.3,0.7,3.1,2s1.2,3.1,1.2,5.4c0,2.7-0.5,4.8-1.6,6.2c0.1,0.4,0.4,0.6,0.8,0.6
				c0.2,0,0.5-0.1,0.8-0.1v3.3c-0.5,0.1-0.9,0.1-1.2,0.1c-0.5,0-0.9-0.2-1.3-0.5S42.7,122.4,42.5,121.3z M41.6,118.2
				c0.5,0,0.8-0.3,1-1s0.3-1.9,0.3-3.6c0-2.5-0.4-3.8-1.3-3.8c-0.9,0-1.4,1.4-1.4,4.3C40.3,116.8,40.7,118.2,41.6,118.2z"/>
			<path d="M54.3,106.6v9.7c0,1.8-0.3,3.2-1,4s-1.5,1.2-2.6,1.2s-2-0.4-2.7-1.2c-0.7-0.8-1-2-1-3.8v-9.9h2.8v9.4
				c0,0.7,0.1,1.2,0.3,1.5s0.5,0.5,0.9,0.5c0.3,0,0.6-0.1,0.8-0.3c0.2-0.2,0.3-0.5,0.4-0.8s0.1-0.9,0.1-1.7v-8.6L54.3,106.6
				L54.3,106.6z"/>
			<path d="M58.6,106.6v14.6h-2.8v-14.6H58.6z"/>
			<path d="M59.2,117l2.6-0.8c0.2,1.2,0.8,1.8,1.7,1.8c0.7,0,1-0.3,1-0.9c0-0.3-0.1-0.6-0.2-0.7c-0.2-0.2-0.5-0.3-0.9-0.5
				c-1.6-0.5-2.6-1.1-3-1.9c-0.5-0.8-0.7-1.7-0.7-2.8c0-1.4,0.3-2.5,1-3.4c0.6-0.9,1.6-1.4,2.8-1.4c1.8,0,3,1.2,3.6,3.6l-2.3,1.1
				c-0.2-1-0.7-1.5-1.4-1.5c-0.6,0-0.9,0.3-0.9,0.9c0,0.3,0.1,0.5,0.2,0.6s0.4,0.3,0.8,0.4c1.1,0.4,1.8,0.7,2.3,1
				c0.4,0.3,0.8,0.8,1.1,1.5c0.3,0.7,0.4,1.5,0.4,2.4c0,1.5-0.4,2.7-1.1,3.6s-1.7,1.4-2.9,1.4C61.1,121.5,59.7,120,59.2,117z"/>
			<path d="M78.3,112.7l2.3,0.4c-0.3,2-0.8,3.5-1.5,4.5c0.2,0.3,0.5,0.4,0.8,0.4c0.2,0,0.4,0,0.6-0.1v3.2c-0.4,0.2-0.7,0.2-1.1,0.2
				c-0.8,0-1.5-0.4-2.1-1.2c-0.6,0.8-1.5,1.2-2.6,1.2s-1.9-0.4-2.6-1.2c-0.7-0.8-1-1.9-1-3.3c0-1.9,0.7-3.2,2.1-4
				c-0.5-1-0.7-2-0.7-2.8c0-1.1,0.3-2,0.8-2.7s1.2-1,2.2-1c0.9,0,1.6,0.3,2.1,0.9s0.8,1.5,0.8,2.6c0,0.9-0.2,1.7-0.5,2.3
				c-0.3,0.6-0.7,1.1-1.2,1.3l0.9,1.6C77.9,114.7,78.2,113.9,78.3,112.7z M74.6,115.1c-0.4,0.3-0.6,0.8-0.6,1.6
				c0,0.5,0.1,0.9,0.3,1.2c0.2,0.3,0.5,0.4,0.8,0.4c0.4,0,0.8-0.2,1-0.6L74.6,115.1z M75.7,111.5c0.4-0.3,0.7-0.7,0.7-1.4
				c0-0.3-0.1-0.6-0.2-0.8s-0.3-0.3-0.5-0.3s-0.3,0.1-0.4,0.3c-0.1,0.2-0.2,0.4-0.2,0.6C75,110.4,75.2,110.9,75.7,111.5z"/>
			<path d="M85.1,121.2v-14.6h3.5c1.5,0,2.6,0.7,3.4,2.2s1.1,3.1,1.1,5.1c0,2.2-0.4,4-1.2,5.3s-1.8,2.1-3.1,2.1L85.1,121.2
				L85.1,121.2z M87.9,117.9h0.7c0.5,0,0.8-0.4,1.2-1.1c0.3-0.7,0.5-1.7,0.5-2.9c0-1.1-0.1-2-0.4-2.8s-0.7-1.2-1.2-1.2H88
				C87.9,109.9,87.9,117.9,87.9,117.9z"/>
			<path d="M102.3,121.2h-3.1l-1.3-5.6H97v5.6h-2.8v-14.6H99c1,0,1.8,0.4,2.4,1.2c0.6,0.8,0.9,1.8,0.9,3.1c0,0.8-0.1,1.6-0.3,2.2
				s-0.6,1.2-1.3,1.7L102.3,121.2z M97,112.5h1.2c0.3,0,0.6-0.1,0.8-0.3s0.3-0.6,0.3-1c0-0.9-0.3-1.4-1.1-1.4H97V112.5L97,112.5z"/>
			<path d="M105.9,117.3v3.9h-2.5v-3.9H105.9z"/>
			<path d="M110.7,121.2v-14.6h4.6c0.9,0,1.6,0.4,2.1,1.2s0.7,1.7,0.7,2.7c0,0.7-0.1,1.4-0.4,2c-0.2,0.6-0.6,1-1.1,1.2
				c1.2,0.5,1.8,1.6,1.8,3.4c0,1.1-0.2,2.1-0.6,2.9s-1.3,1.3-2.6,1.3L110.7,121.2L110.7,121.2z M113.2,112.2h1.3
				c0.3,0,0.6-0.1,0.7-0.4s0.2-0.6,0.2-0.8c0-0.8-0.3-1.2-0.9-1.2h-1.2L113.2,112.2L113.2,112.2z M113.2,118h1.3
				c0.3,0,0.6-0.1,0.7-0.4c0.2-0.3,0.2-0.6,0.2-0.9s-0.1-0.6-0.2-0.9c-0.2-0.3-0.4-0.4-0.8-0.4h-1.2V118L113.2,118z"/>
			<path d="M127.3,121.2h-3.1l-1.3-5.6H122v5.6h-2.8v-14.6h4.7c1,0,1.8,0.4,2.4,1.2c0.6,0.8,0.9,1.8,0.9,3.1c0,0.8-0.1,1.6-0.3,2.2
				s-0.6,1.2-1.3,1.7L127.3,121.2z M122.1,112.5h1.2c0.3,0,0.6-0.1,0.8-0.3s0.3-0.6,0.3-1c0-0.9-0.3-1.4-1.1-1.4H122L122.1,112.5
				L122.1,112.5z"/>
			<path d="M132.4,121.5c-1.3,0-2.3-0.7-3.1-2.1s-1.2-3.2-1.2-5.5c0-2.2,0.4-4,1.1-5.4c0.8-1.4,1.8-2.1,3.2-2.1c1.2,0,2.3,0.7,3.1,2
				s1.2,3.1,1.2,5.4s-0.4,4.2-1.2,5.6S133.7,121.5,132.4,121.5z M132.4,118.2c0.5,0,0.8-0.3,1-1s0.3-1.9,0.3-3.6
				c0-2.5-0.4-3.8-1.3-3.8c-0.9,0-1.4,1.4-1.4,4.3C131.1,116.8,131.6,118.2,132.4,118.2z"/>
			<path d="M145.6,121.2h-2.2l-2.5-6.5c-0.3-0.8-0.6-1.8-1-3c0.1,0.9,0.2,1.7,0.2,2.4v7.1h-2.2v-14.6h2.6l2.1,5.3
				c0.4,1.1,0.7,2,0.9,2.8c-0.1-1.2-0.2-2.5-0.2-3.8v-4.3h2.2L145.6,121.2L145.6,121.2z"/>
			<path d="M154.8,121.2h-2.2l-2.5-6.5c-0.3-0.8-0.6-1.8-1-3c0.1,0.9,0.2,1.7,0.2,2.4v7.1h-2.2v-14.6h2.6l2.1,5.3
				c0.4,1.1,0.7,2,0.9,2.8c-0.1-1.2-0.2-2.5-0.2-3.8v-4.3h2.2L154.8,121.2L154.8,121.2z"/>
			<path d="M163.2,117.8v3.5h-6.8v-14.6h6.8v3.4h-4.1v2.1h3.3v3.2h-3.3v2.4H163.2z"/>
			<path d="M172.3,121.2h-3.1l-1.3-5.6H167v5.6h-2.8v-14.6h4.7c1,0,1.8,0.4,2.4,1.2c0.6,0.8,0.9,1.8,0.9,3.1c0,0.8-0.1,1.6-0.3,2.2
				s-0.6,1.2-1.3,1.7L172.3,121.2z M167,112.5h1.2c0.4,0,0.6-0.1,0.8-0.3s0.3-0.6,0.3-1c0-0.9-0.4-1.4-1.1-1.4H167V112.5L167,112.5z
				"/>
			<path d="M175.8,106.6v3.1l-1.2,3.2h-1l0.9-2.9h-0.9v-3.4L175.8,106.6L175.8,106.6z"/>
			<path d="M176.4,117l2.6-0.8c0.2,1.2,0.8,1.8,1.7,1.8c0.7,0,1-0.3,1-0.9c0-0.3-0.1-0.6-0.2-0.7c-0.2-0.2-0.4-0.3-0.9-0.5
				c-1.6-0.5-2.6-1.1-3-1.9s-0.7-1.7-0.7-2.8c0-1.4,0.3-2.5,1-3.4c0.6-0.9,1.6-1.4,2.8-1.4c1.8,0,3,1.2,3.6,3.6l-2.3,1.1
				c-0.2-1-0.7-1.5-1.4-1.5c-0.6,0-0.9,0.3-0.9,0.9c0,0.3,0.1,0.5,0.2,0.6s0.4,0.3,0.8,0.4c1.1,0.4,1.8,0.7,2.3,1
				c0.4,0.3,0.8,0.8,1.1,1.5s0.4,1.5,0.4,2.4c0,1.5-0.4,2.7-1.1,3.6c-0.7,0.9-1.7,1.4-2.9,1.4C178.2,121.5,176.9,120,176.4,117z"/>
		</g>
		<g>
			<path d="M0.3,121.4v-14.6h3.5c1.5,0,2.6,0.7,3.4,2.2s1.1,3.1,1.1,5.1c0,2.2-0.4,4-1.2,5.3s-1.8,2.1-3.1,2.1L0.3,121.4L0.3,121.4z
				 M3,118h0.7c0.5,0,0.8-0.4,1.2-1.1c0.3-0.7,0.5-1.7,0.5-2.9c0-1.1-0.1-2-0.4-2.8S4.3,110,3.8,110H3V118z"/>
			<path d="M13.3,121.6c-1.3,0-2.3-0.7-3.1-2.1C9.4,118.1,9,116.3,9,114c0-2.2,0.4-4,1.1-5.4s1.8-2.1,3.2-2.1c1.2,0,2.3,0.7,3.1,2
				c0.8,1.3,1.2,3.1,1.2,5.4s-0.4,4.2-1.2,5.6S14.6,121.6,13.3,121.6z M13.3,118.3c0.5,0,0.8-0.3,1-1s0.3-1.9,0.3-3.6
				c0-2.5-0.4-3.8-1.3-3.8c-0.9,0-1.4,1.4-1.4,4.3C12,116.9,12.5,118.3,13.3,118.3z"/>
			<path d="M17.9,117.2l2.6-0.8c0.2,1.2,0.8,1.8,1.7,1.8c0.7,0,1-0.3,1-0.9c0-0.3-0.1-0.6-0.2-0.7c-0.2-0.2-0.5-0.3-0.9-0.5
				c-1.6-0.5-2.6-1.1-3-1.9c-0.5-0.8-0.7-1.7-0.7-2.8c0-1.4,0.3-2.5,1-3.4c0.6-0.9,1.6-1.4,2.8-1.4c1.8,0,3,1.2,3.6,3.6l-2.3,1.1
				c-0.2-1-0.7-1.5-1.4-1.5c-0.6,0-0.9,0.3-0.9,0.9c0,0.3,0.1,0.5,0.2,0.6s0.4,0.3,0.8,0.4c1.1,0.4,1.8,0.7,2.3,1s0.8,0.8,1.1,1.5
				s0.5,1.5,0.5,2.4c0,1.5-0.4,2.7-1.1,3.6s-1.7,1.4-2.9,1.4C19.7,121.6,18.4,120.1,17.9,117.2z"/>
			<path d="M37.1,117.9v3.5h-6.8v-14.6h6.8v3.4H33v2.1h3.3v3.2H33v2.4H37.1z"/>
			<path d="M43,121.5c-0.3,0.1-0.6,0.2-0.9,0.2c-1.3,0-2.3-0.7-3.1-2.1s-1.2-3.2-1.2-5.4c0-2.2,0.4-4,1.1-5.4
				c0.8-1.4,1.8-2.1,3.2-2.1c1.2,0,2.3,0.7,3.1,2s1.2,3.1,1.2,5.4c0,2.7-0.5,4.8-1.6,6.2c0.1,0.4,0.4,0.6,0.8,0.6
				c0.2,0,0.5-0.1,0.8-0.1v3.3c-0.5,0.1-0.9,0.1-1.2,0.1c-0.5,0-0.9-0.2-1.3-0.5C43.5,123.3,43.2,122.6,43,121.5z M42.1,118.3
				c0.5,0,0.8-0.3,1-1s0.3-1.9,0.3-3.6c0-2.5-0.4-3.8-1.3-3.8c-0.9,0-1.4,1.4-1.4,4.3C40.8,116.9,41.2,118.3,42.1,118.3z"/>
			<path d="M54.8,106.8v9.7c0,1.8-0.3,3.2-1,4s-1.5,1.2-2.6,1.2s-2-0.4-2.7-1.2c-0.7-0.8-1-2-1-3.8v-9.9h2.8v9.4
				c0,0.7,0.1,1.2,0.3,1.5s0.5,0.5,0.9,0.5c0.3,0,0.6-0.1,0.8-0.3s0.3-0.5,0.4-0.8c0-0.3,0.1-0.9,0.1-1.7v-8.6L54.8,106.8
				L54.8,106.8z"/>
			<path d="M59.1,106.8v14.6h-2.8v-14.6H59.1z"/>
			<path d="M59.7,117.2l2.6-0.8c0.2,1.2,0.8,1.8,1.7,1.8c0.7,0,1-0.3,1-0.9c0-0.3-0.1-0.6-0.2-0.7c-0.2-0.2-0.4-0.3-0.9-0.5
				c-1.6-0.5-2.6-1.1-3-1.9c-0.5-0.8-0.7-1.7-0.7-2.8c0-1.4,0.3-2.5,1-3.4c0.6-0.9,1.6-1.4,2.8-1.4c1.8,0,3,1.2,3.6,3.6l-2.3,1.1
				c-0.2-1-0.7-1.5-1.4-1.5c-0.6,0-0.9,0.3-0.9,0.9c0,0.3,0.1,0.5,0.2,0.6s0.4,0.3,0.8,0.4c1.1,0.4,1.8,0.7,2.3,1s0.8,0.8,1.1,1.5
				c0.3,0.7,0.4,1.5,0.4,2.4c0,1.5-0.4,2.7-1.1,3.6s-1.7,1.4-2.9,1.4C61.6,121.6,60.2,120.1,59.7,117.2z"/>
			<path d="M78.8,112.8l2.3,0.4c-0.3,2-0.8,3.5-1.5,4.5c0.2,0.3,0.5,0.4,0.8,0.4c0.2,0,0.4,0,0.6-0.1v3.2c-0.4,0.2-0.7,0.2-1.1,0.2
				c-0.8,0-1.5-0.4-2.1-1.2c-0.6,0.8-1.5,1.2-2.6,1.2s-1.9-0.4-2.6-1.2c-0.7-0.8-1-1.9-1-3.3c0-1.9,0.7-3.2,2.1-4
				c-0.5-1-0.7-2-0.7-2.8c0-1.1,0.3-2,0.8-2.7s1.2-1,2.2-1c0.9,0,1.6,0.3,2.1,0.9s0.8,1.5,0.8,2.6c0,0.9-0.2,1.7-0.5,2.3
				c-0.3,0.6-0.7,1.1-1.2,1.3l0.9,1.6C78.4,114.9,78.7,114,78.8,112.8z M75.1,115.2c-0.4,0.3-0.6,0.8-0.6,1.6c0,0.5,0.1,0.9,0.3,1.2
				c0.2,0.3,0.5,0.4,0.8,0.4c0.4,0,0.8-0.2,1-0.6L75.1,115.2z M76.2,111.6c0.4-0.3,0.7-0.7,0.7-1.4c0-0.3-0.1-0.6-0.2-0.8
				s-0.3-0.3-0.5-0.3s-0.3,0.1-0.4,0.3c-0.1,0.2-0.2,0.4-0.2,0.6C75.5,110.6,75.7,111.1,76.2,111.6z"/>
			<path d="M85.6,121.4v-14.6h3.5c1.5,0,2.6,0.7,3.4,2.2s1.1,3.1,1.1,5.1c0,2.2-0.4,4-1.2,5.3s-1.8,2.1-3.1,2.1L85.6,121.4
				L85.6,121.4z M88.3,118H89c0.5,0,0.8-0.4,1.2-1.1c0.3-0.7,0.5-1.7,0.5-2.9c0-1.1-0.1-2-0.4-2.8s-0.7-1.2-1.2-1.2h-0.7
				C88.4,110.1,88.4,118,88.3,118z"/>
			<path d="M102.8,121.4h-3.1l-1.3-5.6h-0.9v5.6h-2.8v-14.6h4.7c1,0,1.8,0.4,2.4,1.2c0.6,0.8,0.9,1.8,0.9,3.1c0,0.8-0.1,1.6-0.3,2.2
				s-0.6,1.2-1.3,1.7L102.8,121.4z M97.5,112.7h1.2c0.3,0,0.6-0.1,0.8-0.3s0.3-0.6,0.3-1c0-0.9-0.3-1.4-1.1-1.4h-1.3L97.5,112.7
				L97.5,112.7z"/>
			<path d="M106.4,117.5v3.9h-2.5v-3.9H106.4z"/>
			<path d="M111.2,121.4v-14.6h4.6c0.9,0,1.6,0.4,2.1,1.2s0.7,1.7,0.7,2.7c0,0.7-0.1,1.4-0.4,2c-0.2,0.6-0.6,1-1.1,1.2
				c1.2,0.5,1.8,1.6,1.8,3.4c0,1.1-0.2,2.1-0.6,2.9s-1.3,1.3-2.6,1.3L111.2,121.4L111.2,121.4z M113.7,112.4h1.3
				c0.3,0,0.6-0.1,0.7-0.4s0.2-0.6,0.2-0.8c0-0.8-0.3-1.2-0.9-1.2h-1.2L113.7,112.4L113.7,112.4z M113.7,118.1h1.3
				c0.3,0,0.6-0.1,0.7-0.4c0.2-0.3,0.2-0.6,0.2-0.9s-0.1-0.6-0.2-0.9c-0.2-0.3-0.4-0.4-0.8-0.4h-1.2V118.1L113.7,118.1z"/>
			<path d="M127.8,121.4h-3.1l-1.3-5.6h-0.9v5.6h-2.8v-14.6h4.7c1,0,1.8,0.4,2.4,1.2c0.6,0.8,0.9,1.8,0.9,3.1c0,0.8-0.1,1.6-0.3,2.2
				s-0.6,1.2-1.3,1.7L127.8,121.4z M122.6,112.7h1.2c0.3,0,0.6-0.1,0.8-0.3s0.3-0.6,0.3-1c0-0.9-0.3-1.4-1.1-1.4h-1.3L122.6,112.7
				L122.6,112.7z"/>
			<path d="M132.9,121.6c-1.3,0-2.3-0.7-3.1-2.1s-1.2-3.2-1.2-5.5c0-2.2,0.4-4,1.1-5.4s1.8-2.1,3.2-2.1c1.2,0,2.3,0.7,3.1,2
				s1.2,3.1,1.2,5.4s-0.4,4.2-1.2,5.6S134.2,121.6,132.9,121.6z M132.9,118.3c0.5,0,0.8-0.3,1-1s0.3-1.9,0.3-3.6
				c0-2.5-0.4-3.8-1.3-3.8c-0.9,0-1.4,1.4-1.4,4.3C131.6,116.9,132.1,118.3,132.9,118.3z"/>
			<path d="M146.1,121.4h-2.2l-2.5-6.5c-0.3-0.8-0.6-1.8-1-3c0.1,0.9,0.2,1.7,0.2,2.4v7.1h-2.2v-14.6h2.6l2.1,5.3
				c0.4,1.1,0.7,2,0.9,2.8c-0.1-1.2-0.2-2.5-0.2-3.8v-4.3h2.2L146.1,121.4L146.1,121.4z"/>
			<path d="M155.3,121.4h-2.2l-2.5-6.5c-0.3-0.8-0.6-1.8-1-3c0.1,0.9,0.2,1.7,0.2,2.4v7.1h-2.2v-14.6h2.6l2.1,5.3
				c0.4,1.1,0.7,2,0.9,2.8c-0.1-1.2-0.2-2.5-0.2-3.8v-4.3h2.2L155.3,121.4L155.3,121.4z"/>
			<path d="M163.7,117.9v3.5h-6.8v-14.6h6.8v3.4h-4.1v2.1h3.3v3.2h-3.3v2.4H163.7z"/>
			<path d="M172.8,121.4h-3.1l-1.3-5.6h-0.9v5.6h-2.8v-14.6h4.7c1,0,1.8,0.4,2.4,1.2c0.6,0.8,0.9,1.8,0.9,3.1c0,0.8-0.1,1.6-0.3,2.2
				s-0.6,1.2-1.3,1.7L172.8,121.4z M167.5,112.7h1.2c0.4,0,0.6-0.1,0.8-0.3s0.3-0.6,0.3-1c0-0.9-0.4-1.4-1.1-1.4h-1.3L167.5,112.7
				L167.5,112.7z"/>
			<path d="M176.3,106.8v3.1l-1.2,3.2h-1l0.9-2.9h-1v-3.4L176.3,106.8L176.3,106.8z"/>
			<path d="M176.9,117.2l2.6-0.8c0.2,1.2,0.8,1.8,1.7,1.8c0.7,0,1-0.3,1-0.9c0-0.3-0.1-0.6-0.2-0.7c-0.2-0.2-0.4-0.3-0.9-0.5
				c-1.6-0.5-2.6-1.1-3-1.9s-0.7-1.7-0.7-2.8c0-1.4,0.3-2.5,1-3.4c0.6-0.9,1.6-1.4,2.8-1.4c1.8,0,3,1.2,3.6,3.6l-2.3,1.1
				c-0.2-1-0.7-1.5-1.4-1.5c-0.6,0-0.9,0.3-0.9,0.9c0,0.3,0.1,0.5,0.2,0.6s0.4,0.3,0.8,0.4c1.1,0.4,1.8,0.7,2.3,1s0.8,0.8,1.1,1.5
				s0.4,1.5,0.4,2.4c0,1.5-0.4,2.7-1.1,3.6c-0.7,0.9-1.7,1.4-2.9,1.4C178.7,121.6,177.4,120.1,176.9,117.2z"/>
		</g>
	</g>
</g>
</svg>
