<?xml version="1.0" encoding="utf-8"?>
<!-- Generator: Adobe Illustrator 22.1.0, SVG Export Plug-In . SVG Version: 6.00 Build 0)  -->

<svg version="1.1" id="PromoSmall" xmlns="http://www.w3.org/2000/svg" xmlns:xlink="http://www.w3.org/1999/xlink" x="0px" y="0px"
	 viewBox="0 0 265.9 263.1" enable-background="new 0 0 265.9 263.1" xml:space="preserve">
<path id="back" fill="#F9B76E" stroke="#000000" stroke-width="5" stroke-miterlimit="10" d="M67.3,2.7h131.3
	c35.8,0,64.8,29,64.8,64.8v128.3c0,35.8-29,64.8-64.8,64.8H67.3c-35.8,0-64.8-29-64.8-64.8V67.5C2.5,31.7,31.5,2.7,67.3,2.7z"/>
<g id="name">
	<path d="M31.5,178.1v-28.6h8.2c3.3-0.2,6.3,1.5,8,4.3c1.8,3,2.7,6.4,2.7,9.9c0,4.3-0.9,7.7-2.8,10.4c-1.6,2.5-4.4,4-7.4,4
		L31.5,178.1z M38.1,171.5h1.7c1.1,0,2-0.7,2.7-2.1c0.8-1.8,1.2-3.8,1.1-5.8c0-1.8-0.3-3.7-1-5.4c-0.7-1.5-1.6-2.3-2.8-2.3h-1.7
		V171.5z"/>
	<path d="M69.9,178.1h-7.2l-3.1-10.9h-2.1v10.9H51v-28.6h11.1c2.2-0.1,4.2,0.7,5.7,2.3c1.4,1.7,2.1,3.9,2,6.1c0,1.5-0.2,3-0.7,4.4
		c-0.6,1.4-1.7,2.6-3,3.3L69.9,178.1z M57.5,161.1h2.8c0.7,0,1.4-0.2,2-0.7c0.5-0.5,0.8-1.3,0.7-2c0-1.8-0.8-2.8-2.5-2.8h-3V161.1z"
		/>
	<path d="M76.3,170.5v7.6h-5.9v-7.6H76.3z"/>
	<path d="M77.4,178.1v-28.6h10.8c1.9-0.2,3.8,0.7,4.9,2.3c1,1.5,1.6,3.4,1.5,5.2c0,1.3-0.3,2.7-0.9,3.9c-0.5,1.1-1.5,2-2.7,2.4
		c2.7,0.9,4.1,3.1,4.1,6.7c0,2-0.5,4-1.5,5.7s-3,2.5-6.2,2.5L77.4,178.1z M83.4,160.5h3c0.6,0.1,1.3-0.2,1.6-0.8
		c0.3-0.5,0.5-1.1,0.5-1.6c0-1.6-0.7-2.4-2.2-2.4h-2.9V160.5z M83.4,171.8h3.2c0.7,0,1.3-0.2,1.7-0.8c0.4-0.5,0.6-1.1,0.6-1.8
		c0-0.6-0.2-1.3-0.5-1.8c-0.5-0.6-1.2-0.9-2-0.8h-3L83.4,171.8z"/>
	<path d="M114.6,178.1h-7.2l-3.1-10.9h-2.1v10.9h-6.5v-28.6h11.1c2.2-0.1,4.2,0.7,5.7,2.3c1.4,1.7,2.1,3.9,2,6.1
		c0,1.5-0.2,3-0.8,4.4c-0.6,1.4-1.7,2.6-3,3.3L114.6,178.1z M102.2,161.1h2.8c0.7,0,1.4-0.2,2-0.7c0.5-0.5,0.8-1.3,0.7-2
		c0-1.8-0.8-2.8-2.5-2.8h-3V161.1z"/>
	<path d="M124.4,178.6c-3,0-5.7-1.5-7.3-4c-1.9-2.7-2.8-6.2-2.8-10.7c-0.1-3.7,0.8-7.4,2.7-10.6c2.5-4.1,7.8-5.4,11.9-2.9
		c1.1,0.7,2.1,1.6,2.8,2.7c1.9,2.6,2.8,6.1,2.8,10.5c0,4.5-0.9,8.2-2.8,10.9C130.1,177,127.4,178.6,124.4,178.6z M124.4,172.1
		c1.1,0,2.1-0.8,2.4-1.9c0.6-2.3,0.8-4.7,0.7-7.1c0-5-1-7.5-3-7.5c-2.1,0-3.2,2.8-3.2,8.5C121.3,169.4,122.3,172.1,124.4,172.1
		L124.4,172.1z"/>
	<path d="M153.2,178.1h-5.3l-5.8-12.6c-0.9-1.9-1.6-3.9-2.3-5.9c0.3,1.5,0.5,3.1,0.5,4.7v13.8H135v-28.6h6.1L146,160
		c0.9,1.8,1.6,3.6,2.2,5.5c-0.3-2.5-0.5-5-0.5-7.5v-8.5h5.3v28.6H153.2z"/>
	<path d="M172.9,178.1h-5.3l-5.8-12.6c-0.9-1.9-1.6-3.9-2.3-5.9c0.3,1.5,0.5,3.1,0.5,4.7v13.8h-5.3v-28.6h6.1l4.9,10.5
		c0.9,1.8,1.6,3.6,2.2,5.5c-0.3-2.5-0.5-5-0.5-7.5v-8.5h5.3L172.9,178.1z"/>
	<path d="M190.4,171.3v6.8h-16v-28.6h16v6.6h-9.6v4.1h7.7v6.3h-7.7v4.7L190.4,171.3L190.4,171.3z"/>
	<path d="M209.6,178.1h-7.2l-3.1-10.9h-2.1v10.9h-6.5v-28.6h11.1c2.2-0.1,4.2,0.7,5.7,2.3c1.4,1.7,2.1,3.9,2,6.1
		c0,1.5-0.2,3-0.8,4.4s-1.7,2.6-3,3.3L209.6,178.1z M197.3,161.1h2.8c0.7,0,1.4-0.2,2-0.7c0.5-0.5,0.8-1.3,0.7-2
		c0-1.8-0.8-2.8-2.5-2.8h-3V161.1z"/>
	<path d="M215.8,149.5v6l-2.9,6.4h-2.5l2.1-5.7h-2.1v-6.6L215.8,149.5z"/>
	<path d="M215,169.8l6-1.5c0.5,2.3,1.8,3.5,3.9,3.5c1.6,0,2.5-0.6,2.5-1.8c0-0.5-0.2-1.1-0.6-1.4c-0.6-0.4-1.3-0.8-2-0.9
		c-3.7-1-6.1-2.2-7.2-3.8c-1.1-1.6-1.7-3.5-1.6-5.5c-0.1-2.4,0.7-4.8,2.3-6.7c1.7-1.8,4.1-2.8,6.6-2.7c4.3,0,7.2,2.3,8.6,7l-5.4,2.2
		c-0.6-1.9-1.7-2.9-3.4-2.9c-1.4,0-2.1,0.6-2.1,1.8c0,0.5,0.1,0.9,0.5,1.2c0.6,0.4,1.2,0.7,1.9,0.8c1.9,0.5,3.7,1.1,5.4,1.9
		c1.2,0.7,2.1,1.7,2.7,2.9c0.7,1.5,1.1,3.1,1.1,4.8c0.1,2.6-0.8,5.1-2.6,7c-1.8,1.8-4.3,2.8-6.9,2.7
		C219.4,178.5,216.2,175.7,215,169.8z"/>
	<path d="M137.5,119.6l5.5,0.9c-0.7,3.9-1.8,6.8-3.5,8.8c0.5,0.5,1.2,0.8,2,0.8c0.5,0,1-0.1,1.5-0.1v6.2c-0.8,0.3-1.7,0.5-2.5,0.5
		c-1.9,0-3.8-0.8-5-2.3c-1.6,1.7-3.8,2.6-6.1,2.4c-2.3,0.1-4.5-0.8-6.1-2.3c-1.7-1.7-2.5-4.1-2.4-6.5c-0.2-3.4,1.8-6.6,4.9-7.9
		c-1.1-1.7-1.7-3.6-1.7-5.6c-0.1-1.9,0.6-3.8,1.8-5.3c1.3-1.3,3.2-2.1,5.1-1.9c1.8-0.1,3.6,0.6,4.9,1.9c1.3,1.4,2,3.3,1.8,5.2
		c0.1,1.6-0.4,3.2-1.2,4.6c-0.7,1.1-1.6,2-2.8,2.5l2.2,3.1C136.8,123,137.3,121.4,137.5,119.6z M128.6,124.3c-1,0.7-1.6,1.9-1.5,3.1
		c0,0.8,0.2,1.7,0.7,2.3c0.5,0.6,1.2,0.9,2,0.9c0.9,0,1.8-0.4,2.4-1.1L128.6,124.3z M131.2,117.3c1-0.5,1.6-1.5,1.6-2.7
		c0-0.5-0.1-1.1-0.4-1.5c-0.3-0.4-0.7-0.6-1.2-0.6c-0.4,0-0.8,0.2-1.1,0.5c-0.3,0.4-0.4,0.8-0.4,1.3
		C129.8,115.4,130.4,116.4,131.2,117.3L131.2,117.3z"/>
	<path d="M37,190.1v10.2h-2.9v-10.2H32v-3.2h7.1v3.2H37z"/>
	<path d="M47.4,186.8v13.4h-3.1V195H42v5.2h-3v-13.4h3v4.9h2.3v-4.9H47.4z"/>
	<path d="M55.7,197.1v3.2h-7.5v-13.4h7.5v3.1h-4.5v2h3.6v3h-3.6v2.2L55.7,197.1z"/>
	<path d="M58.6,200.3v-13.4h5.1c0.9-0.1,1.8,0.3,2.4,1.1c0.5,0.7,0.7,1.6,0.7,2.4c0,0.6-0.1,1.3-0.4,1.8s-0.7,0.9-1.3,1.1
		c1.3,0.4,1.9,1.5,1.9,3.1c0,0.9-0.2,1.9-0.7,2.7s-1.4,1.2-2.9,1.2L58.6,200.3z M61.4,192h1.4c0.3,0,0.6-0.1,0.8-0.4
		c0.1-0.2,0.2-0.5,0.2-0.8c0-0.8-0.3-1.1-1-1.1h-1.4V192z M61.4,197.3h1.5c0.3,0,0.6-0.1,0.8-0.4c0.2-0.2,0.3-0.5,0.3-0.8
		s-0.1-0.6-0.3-0.9c-0.2-0.3-0.6-0.4-0.9-0.4h-1.4C61.4,194.8,61.4,197.3,61.4,197.3z"/>
	<path d="M74.7,197.1v3.2h-7.5v-13.4h7.5v3.1h-4.5v2h3.6v3h-3.6v2.2L74.7,197.1z"/>
	<path d="M73.9,196.4l2.8-0.7c0.1,0.9,0.9,1.7,1.8,1.6c0.8,0,1.2-0.3,1.2-0.8c0-0.2-0.1-0.5-0.3-0.7c-0.3-0.2-0.6-0.4-1-0.4
		c-1.8-0.4-2.9-1-3.4-1.8s-0.8-1.7-0.8-2.6c0-1.2,0.3-2.3,1.1-3.2c0.8-0.9,1.9-1.3,3.1-1.3c2,0,3.3,1.1,4,3.3l-2.5,1
		c-0.1-0.8-0.8-1.4-1.6-1.4c-0.7,0-1,0.3-1,0.8c0,0.2,0.1,0.4,0.2,0.6c0.3,0.2,0.6,0.3,0.9,0.4c0.9,0.2,1.7,0.5,2.6,0.9
		c0.5,0.3,1,0.8,1.3,1.4c0.4,0.7,0.5,1.5,0.5,2.2c0.1,1.2-0.3,2.4-1.2,3.3c-0.9,0.9-2,1.3-3.2,1.3C75.9,200.5,74.4,199.1,73.9,196.4
		z"/>
	<path d="M87.2,190.1v10.2h-2.9v-10.2h-2.1v-3.2h7v3.2H87.2z"/>
	<path d="M97.3,195.1l2.8,0.2c0,1.4-0.5,2.7-1.3,3.8c-0.7,0.8-1.8,1.3-2.8,1.3c-1.3,0-2.6-0.7-3.3-1.8c-0.9-1.5-1.3-3.2-1.3-5
		c-0.1-1.8,0.3-3.5,1.2-5.1c0.7-1.2,1.9-2,3.3-1.9c1.2-0.1,2.4,0.5,3.1,1.5c0.8,1.2,1.2,2.5,1.2,3.9l-2.9,0.2c0-0.7-0.1-1.3-0.4-1.9
		c-0.2-0.3-0.5-0.6-0.9-0.6c-1,0-1.4,1.3-1.4,3.9c-0.1,1,0.1,2,0.4,3c0.2,0.5,0.6,0.8,1.1,0.8C96.8,197.4,97.2,196.6,97.3,195.1z"/>
	<path d="M104.6,200.5c-1.4,0-2.7-0.7-3.4-1.9c-0.9-1.5-1.4-3.2-1.3-5c-0.1-1.8,0.4-3.5,1.3-5c1.2-1.9,3.7-2.5,5.6-1.4
		c0.5,0.3,1,0.7,1.3,1.3c0.9,1.5,1.4,3.2,1.3,4.9c0.1,1.8-0.4,3.6-1.3,5.1C107.2,199.8,105.9,200.5,104.6,200.5z M104.6,197.4
		c0.5,0,1-0.4,1.1-0.9c0.3-1.1,0.4-2.2,0.3-3.3c0-2.3-0.5-3.5-1.4-3.5s-1.5,1.3-1.5,4C103.1,196.2,103.6,197.4,104.6,197.4
		L104.6,197.4z"/>
	<path d="M116.6,197v3.3h-7v-13.4h3.1V197L116.6,197L116.6,197z"/>
	<path d="M123.6,197v3.3h-7v-13.4h3.1V197L123.6,197L123.6,197z"/>
	<path d="M129.2,200.3l-0.6-2.6h-2.7l-0.6,2.6h-2.5l3.1-13.4h3.2l3.1,13.4H129.2z M126.4,194.7h1.6l-0.8-3.9L126.4,194.7z"/>
	<path d="M132.2,200.3v-13.4h5.1c0.9-0.1,1.8,0.3,2.3,1.1c0.5,0.7,0.7,1.6,0.7,2.4c0,0.6-0.1,1.3-0.4,1.8c-0.3,0.5-0.7,0.9-1.3,1.1
		c1.3,0.4,1.9,1.5,1.9,3.1c0,0.9-0.2,1.9-0.7,2.7s-1.4,1.2-2.9,1.2L132.2,200.3L132.2,200.3z M135,192h1.4c0.3,0,0.6-0.1,0.8-0.4
		c0.1-0.2,0.2-0.5,0.2-0.8c0-0.8-0.3-1.1-1-1.1H135V192z M135,197.3h1.5c0.3,0,0.6-0.1,0.8-0.4c0.2-0.2,0.3-0.5,0.3-0.8
		s-0.1-0.6-0.3-0.9c-0.2-0.3-0.6-0.4-0.9-0.4H135V197.3z"/>
	<path d="M145.1,200.5c-1.4,0-2.7-0.7-3.4-1.9c-0.9-1.5-1.4-3.2-1.3-5c-0.1-1.8,0.4-3.5,1.3-5c1.2-1.9,3.7-2.5,5.6-1.4
		c0.5,0.3,1,0.7,1.3,1.3c0.9,1.5,1.4,3.2,1.3,4.9c0.1,1.8-0.4,3.6-1.3,5.1C147.8,199.8,146.5,200.5,145.1,200.5z M145.1,197.4
		c0.5,0,1-0.4,1.1-0.9c0.3-1.1,0.4-2.2,0.3-3.3c0-2.3-0.5-3.5-1.4-3.5s-1.5,1.3-1.5,4C143.6,196.2,144.1,197.4,145.1,197.4
		L145.1,197.4z"/>
	<path d="M159,200.3h-3.4l-1.5-5.1h-1v5.1H150v-13.4h5.2c1-0.1,2,0.3,2.7,1.1s1,1.8,0.9,2.9c0,0.7-0.1,1.4-0.4,2
		c-0.3,0.7-0.8,1.2-1.4,1.6L159,200.3z M153.2,192.3h1.3c0.3,0,0.7-0.1,0.9-0.3c0.2-0.3,0.4-0.6,0.4-0.9c0-0.9-0.4-1.3-1.2-1.3h-1.4
		V192.3z"/>
	<path d="M165,200.3l-0.6-2.6h-2.7l-0.6,2.6h-2.5l3.1-13.4h3.2l3.1,13.4H165z M162.3,194.7h1.6l-0.8-3.9L162.3,194.7z"/>
	<path d="M171.5,190.1v10.2h-2.9v-10.2h-2.1v-3.2h7v3.2H171.5z"/>
	<path d="M176.5,186.8v13.4h-3.1v-13.4H176.5z"/>
	<path d="M181.5,200.5c-1.4,0-2.7-0.7-3.4-1.9c-0.9-1.5-1.4-3.2-1.3-5c-0.1-1.8,0.4-3.5,1.3-5c0.7-1.3,2.1-2,3.5-2s2.7,0.7,3.4,1.9
		c0.9,1.5,1.4,3.2,1.3,4.9c0.1,1.8-0.4,3.6-1.3,5.1C184.2,199.7,182.9,200.5,181.5,200.5z M181.5,197.4c0.5,0,1-0.4,1.1-0.9
		c0.3-1.1,0.4-2.2,0.3-3.3c0-2.3-0.5-3.5-1.4-3.5s-1.5,1.3-1.5,4C180.1,196.2,180.6,197.4,181.5,197.4L181.5,197.4z"/>
	<path d="M195.1,200.3h-2.5l-2.7-5.9c-0.4-0.9-0.8-1.8-1.1-2.8c0.1,0.7,0.2,1.5,0.2,2.2v6.5h-2.5v-13.4h2.9l2.3,4.9
		c0.4,0.8,0.8,1.7,1.1,2.6c-0.2-1.2-0.2-2.3-0.2-3.5v-4h2.5V200.3z"/>
	<path d="M206.1,197.1v3.2h-7.5v-13.4h7.5v3.1h-4.5v2h3.6v3h-3.6v2.2L206.1,197.1z"/>
	<path d="M214.9,186.8l-3.1,13.4h-3.1l-3.2-13.4h3.2l1.6,7.3c0.1,0.4,0.2,0.9,0.3,1.3l1.9-8.6H214.9z"/>
	<path d="M222.3,197.1v3.2h-7.5v-13.4h7.5v3.1h-4.5v2h3.6v3h-3.6v2.2L222.3,197.1z"/>
	<path d="M231.4,200.3H228l-1.5-5.1h-1v5.1h-3.1v-13.4h5.2c1-0.1,2,0.3,2.7,1.1s1,1.8,1,2.9c0,0.7-0.1,1.4-0.4,2
		c-0.3,0.7-0.8,1.2-1.4,1.6L231.4,200.3z M225.6,192.3h1.3c0.3,0,0.7-0.1,0.9-0.3c0.2-0.3,0.4-0.6,0.4-0.9c0-0.9-0.4-1.3-1.2-1.3
		h-1.4V192.3z"/>
	<g>
		<path d="M61.8,92.6V64H70c3.3-0.2,6.3,1.5,8,4.3c1.8,3,2.7,6.4,2.7,9.9c0,4.3-1,7.7-2.9,10.4c-1.6,2.5-4.4,4-7.4,4H61.8z M68.3,86
			H70c1.1,0,2-0.7,2.7-2.1c0.8-1.8,1.2-3.8,1.1-5.8c0-1.8-0.3-3.7-1-5.4c-0.6-1.5-1.6-2.3-2.8-2.3h-1.7C68.3,70.4,68.3,86,68.3,86z"
			/>
		<path d="M90.5,93c-3,0-5.7-1.5-7.3-4c-1.9-2.7-2.8-6.2-2.8-10.7c-0.2-3.7,0.8-7.4,2.7-10.6c2.5-4.1,7.8-5.4,11.9-2.9
			c1.1,0.7,2.1,1.6,2.8,2.7c1.9,2.6,2.8,6.1,2.8,10.5c0,4.5-0.9,8.2-2.8,10.9C96.2,91.4,93.4,93,90.5,93z M90.5,86.5
			c1.1,0,2.1-0.8,2.4-1.9c0.6-2.3,0.8-4.7,0.7-7.1c0-5-1-7.5-3-7.4c-2.1,0-3.2,2.8-3.2,8.5C87.3,83.9,88.4,86.5,90.5,86.5L90.5,86.5
			z"/>
		<path d="M98.9,84.3l6-1.5c0.5,2.3,1.8,3.5,3.9,3.5c1.6,0,2.5-0.6,2.5-1.8c0-0.5-0.2-1.1-0.6-1.4c-0.6-0.4-1.3-0.8-2-0.9
			c-3.7-1-6.1-2.2-7.2-3.8c-1.1-1.6-1.6-3.5-1.6-5.5c-0.1-2.5,0.7-4.9,2.3-6.8c1.7-1.9,4.1-2.8,6.6-2.7c4.3,0,7.2,2.3,8.6,7
			l-5.4,2.3c-0.6-1.9-1.7-2.9-3.4-2.9c-1.4,0-2.1,0.6-2.1,1.8c0,0.5,0.1,0.9,0.5,1.2c0.6,0.4,1.2,0.7,1.9,0.8
			c1.9,0.5,3.7,1.1,5.4,1.9c1.2,0.7,2.1,1.7,2.7,2.9c0.8,1.5,1.1,3.1,1.1,4.8c0.1,2.6-0.8,5.1-2.6,7c-1.8,1.8-4.3,2.8-6.9,2.7
			C103.3,93,100.1,90.1,98.9,84.3z"/>
		<path d="M140.1,85.7v6.8h-16V64h16v6.6h-9.6v4.2h7.7v6.3h-7.7v4.7L140.1,85.7z"/>
		<path d="M151.8,92.7c-3.7,1-7.5-0.6-9.5-3.8c-1.9-2.7-2.8-6.2-2.8-10.6c-0.2-3.7,0.8-7.4,2.7-10.6c2.5-4.1,7.8-5.4,11.9-2.9
			c1.1,0.7,2,1.6,2.8,2.7c1.9,2.6,2.8,6.1,2.8,10.5c0,5.3-1.3,9.4-3.8,12.2c0.2,0.8,0.9,1.2,2,1.2c0.6,0,1.2-0.1,1.8-0.3v6.5
			c-0.9,0.1-1.8,0.2-2.7,0.2c-1.1,0-2.2-0.3-3.1-1C152.9,96.2,152.2,94.8,151.8,92.7z M149.6,86.5c1.2,0,2.1-0.8,2.4-1.9
			c0.6-2.3,0.8-4.7,0.7-7.1c0-5-1-7.5-3-7.4c-2.1,0-3.2,2.8-3.2,8.5C146.5,83.9,147.5,86.5,149.6,86.5L149.6,86.5z"/>
		<path d="M177.5,64v18.9c0,3.6-0.8,6.2-2.4,7.7c-1.6,1.6-3.8,2.4-6.1,2.3c-2.4,0.1-4.7-0.7-6.4-2.3c-1.6-1.5-2.4-4-2.4-7.4V64h6.6
			v18.4c-0.1,1,0.1,2.1,0.6,3c0.5,0.6,1.2,1,2,0.9c0.7,0,1.4-0.2,1.9-0.7c0.5-0.4,0.8-0.9,0.9-1.5c0.1-1.1,0.2-2.2,0.1-3.3V64H177.5
			z"/>
		<path d="M185.3,64v28.6h-6.5V64H185.3z"/>
		<path d="M184.7,84.3l6-1.5c0.5,2.3,1.8,3.5,3.9,3.5c1.6,0,2.5-0.6,2.5-1.8c0-0.5-0.2-1.1-0.6-1.4c-0.6-0.4-1.3-0.8-2-0.9
			c-3.7-1-6.1-2.2-7.2-3.8c-1.1-1.6-1.6-3.5-1.6-5.5c-0.1-2.5,0.7-4.9,2.3-6.7c1.7-1.9,4.1-2.8,6.6-2.7c4.3,0,7.2,2.3,8.6,7
			l-5.4,2.2c-0.6-1.9-1.7-2.9-3.4-2.9c-1.4,0-2.1,0.6-2.1,1.8c0,0.5,0.2,0.9,0.5,1.2c0.6,0.4,1.2,0.7,1.9,0.8c1.9,0.5,3.7,1.2,5.5,2
			c1.2,0.7,2.1,1.7,2.7,2.9c0.7,1.5,1.1,3.1,1.1,4.8c0.1,2.6-0.8,5.1-2.6,7c-1.8,1.8-4.3,2.8-6.9,2.7
			C189.1,93,185.9,90.1,184.7,84.3z"/>
	</g>
</g>
</svg>
