<svg id="PromoSmall" xmlns="http://www.w3.org/2000/svg" viewBox="0 0 265.87 263.1"><defs><style>.cls-1{fill:#f9b76e;stroke:#000;stroke-miterlimit:10;stroke-width:5px;}

#name{

animation: beat .70s infinite alternate;
transform-origin: center;
}

@keyframes beat{
	to{transform: scale(1.15);}
}




</style></defs><title>Artboard 1</title><path id="back" class="cls-1" d="M67.3,2.67H198.6a64.78,64.78,0,0,1,64.8,64.8v128.3a64.78,64.78,0,0,1-64.8,64.8H67.3a64.78,64.78,0,0,1-64.8-64.8V67.47A64.78,64.78,0,0,1,67.3,2.67Z"/><g id="name"><path d="M31.5,178.07v-28.6h8.2a8.72,8.72,0,0,1,8,4.3,19.14,19.14,0,0,1,2.7,9.9c0,4.3-.9,7.7-2.8,10.4a8.77,8.77,0,0,1-7.4,4Zm6.6-6.6h1.7q1.65,0,2.7-2.1a12.78,12.78,0,0,0,1.1-5.8,14.36,14.36,0,0,0-1-5.4c-.7-1.5-1.6-2.3-2.8-2.3H38.1Z"/><path d="M69.9,178.07H62.7l-3.1-10.9H57.5v10.9H51v-28.6H62.1a7.19,7.19,0,0,1,5.7,2.3,9,9,0,0,1,2,6.1,13.08,13.08,0,0,1-.7,4.4,6.89,6.89,0,0,1-3,3.3Zm-12.4-17h2.8a3.06,3.06,0,0,0,2-.7,2.49,2.49,0,0,0,.7-2c0-1.8-.8-2.8-2.5-2.8h-3Z"/><path d="M76.3,170.47v7.6H70.4v-7.6Z"/><path d="M77.4,178.07v-28.6H88.2a5.33,5.33,0,0,1,4.9,2.3,8.78,8.78,0,0,1,1.5,5.2,8.91,8.91,0,0,1-.9,3.9,4.59,4.59,0,0,1-2.7,2.4c2.7.9,4.1,3.1,4.1,6.7a11.29,11.29,0,0,1-1.5,5.7c-1,1.7-3,2.5-6.2,2.5Zm6-17.6h3a1.55,1.55,0,0,0,1.6-.8,3.32,3.32,0,0,0,.5-1.6c0-1.6-.7-2.4-2.2-2.4H83.4Zm0,11.3h3.2a1.88,1.88,0,0,0,1.7-.8,2.79,2.79,0,0,0,.6-1.8,3.74,3.74,0,0,0-.5-1.8,2.17,2.17,0,0,0-2-.8h-3Z"/><path d="M114.6,178.07h-7.2l-3.1-10.9h-2.1v10.9H95.7v-28.6h11.1a7.19,7.19,0,0,1,5.7,2.3,9,9,0,0,1,2,6.1,11.08,11.08,0,0,1-.8,4.4,6.89,6.89,0,0,1-3,3.3Zm-12.4-17H105a3.06,3.06,0,0,0,2-.7,2.49,2.49,0,0,0,.7-2c0-1.8-.8-2.8-2.5-2.8h-3Z"/><path d="M124.4,178.57a8.6,8.6,0,0,1-7.3-4c-1.9-2.7-2.8-6.2-2.8-10.7a19.73,19.73,0,0,1,2.7-10.6,8.64,8.64,0,0,1,11.9-2.9,9,9,0,0,1,2.8,2.7c1.9,2.6,2.8,6.1,2.8,10.5s-.9,8.2-2.8,10.9A8.69,8.69,0,0,1,124.4,178.57Zm0-6.5a2.55,2.55,0,0,0,2.4-1.9,24.15,24.15,0,0,0,.7-7.1q0-7.5-3-7.5c-2.1,0-3.2,2.8-3.2,8.5,0,5.3,1,8,3.1,8Z"/><path d="M153.2,178.07h-5.3l-5.8-12.6a60.07,60.07,0,0,1-2.3-5.9,24.16,24.16,0,0,1,.5,4.7v13.8H135v-28.6h6.1L146,160a37.11,37.11,0,0,1,2.2,5.5,63,63,0,0,1-.5-7.5v-8.5H153v28.6Z"/><path d="M172.9,178.07h-5.3l-5.8-12.6a60.07,60.07,0,0,1-2.3-5.9,24.16,24.16,0,0,1,.5,4.7v13.8h-5.3v-28.6h6.1l4.9,10.5a37.11,37.11,0,0,1,2.2,5.5,63,63,0,0,1-.5-7.5v-8.5h5.3Z"/><path d="M190.4,171.27v6.8h-16v-28.6h16v6.6h-9.6v4.1h7.7v6.3h-7.7v4.7l9.6.1Z"/><path d="M209.6,178.07h-7.2l-3.1-10.9h-2.1v10.9h-6.5v-28.6h11.1a7.19,7.19,0,0,1,5.7,2.3,9,9,0,0,1,2,6.1,11.08,11.08,0,0,1-.8,4.4,6.89,6.89,0,0,1-3,3.3Zm-12.3-17h2.8a3.06,3.06,0,0,0,2-.7,2.49,2.49,0,0,0,.7-2c0-1.8-.8-2.8-2.5-2.8h-3Z"/><path d="M215.8,149.47v6l-2.9,6.4h-2.5l2.1-5.7h-2.1v-6.6Z"/><path d="M215,169.77l6-1.5c.5,2.3,1.8,3.5,3.9,3.5,1.6,0,2.5-.6,2.5-1.8a1.82,1.82,0,0,0-.6-1.4,5.15,5.15,0,0,0-2-.9c-3.7-1-6.1-2.2-7.2-3.8a8.89,8.89,0,0,1-1.6-5.5,9.78,9.78,0,0,1,2.3-6.7,8.61,8.61,0,0,1,6.6-2.7c4.3,0,7.2,2.3,8.6,7l-5.4,2.2c-.6-1.9-1.7-2.9-3.4-2.9q-2.1,0-2.1,1.8a1.35,1.35,0,0,0,.5,1.2,4.55,4.55,0,0,0,1.9.8,31.33,31.33,0,0,1,5.4,1.9,6.86,6.86,0,0,1,2.7,2.9,11.25,11.25,0,0,1,1.1,4.8,9.56,9.56,0,0,1-2.6,7,9.27,9.27,0,0,1-6.9,2.7C219.4,178.47,216.2,175.67,215,169.77Z"/><path d="M137.5,119.57l5.5.9c-.7,3.9-1.8,6.8-3.5,8.8a2.79,2.79,0,0,0,2,.8c.5,0,1-.1,1.5-.1v6.2a7.42,7.42,0,0,1-2.5.5,6.41,6.41,0,0,1-5-2.3,7.45,7.45,0,0,1-6.1,2.4,8.45,8.45,0,0,1-6.1-2.3,8.65,8.65,0,0,1-2.4-6.5,8.1,8.1,0,0,1,4.9-7.9,10.23,10.23,0,0,1-1.7-5.6,7.94,7.94,0,0,1,1.8-5.3,7.53,7.53,0,0,1,10,0,6.68,6.68,0,0,1,1.8,5.2,8.35,8.35,0,0,1-1.2,4.6,6.16,6.16,0,0,1-2.8,2.5l2.2,3.1A12.76,12.76,0,0,0,137.5,119.57Zm-8.9,4.7a3.5,3.5,0,0,0-1.5,3.1,3.69,3.69,0,0,0,.7,2.3,2.52,2.52,0,0,0,2,.9,3.19,3.19,0,0,0,2.4-1.1Zm2.6-7a2.92,2.92,0,0,0,1.6-2.7,2.6,2.6,0,0,0-.4-1.5,1.43,1.43,0,0,0-1.2-.6,1.61,1.61,0,0,0-1.1.5,2,2,0,0,0-.4,1.3,5.37,5.37,0,0,0,1.5,3Z"/><path d="M37,190.07v10.2H34.1v-10.2H32v-3.2h7.1v3.2Z"/><path d="M47.4,186.77v13.4H44.3V195H42v5.2H39v-13.4h3v4.9h2.3v-4.9Z"/><path d="M55.7,197.07v3.2H48.2v-13.4h7.5V190H51.2v2h3.6v3H51.2v2.2Z"/><path d="M58.6,200.27v-13.4h5.1a2.64,2.64,0,0,1,2.4,1.1,4.2,4.2,0,0,1,.7,2.4,3.66,3.66,0,0,1-.4,1.8,2.37,2.37,0,0,1-1.3,1.1c1.3.4,1.9,1.5,1.9,3.1a5.19,5.19,0,0,1-.7,2.7c-.5.8-1.4,1.2-2.9,1.2Zm2.8-8.3h1.4a.91.91,0,0,0,.8-.4,1.88,1.88,0,0,0,.2-.8c0-.8-.3-1.1-1-1.1H61.4Zm0,5.3h1.5a.91.91,0,0,0,.8-.4,1.14,1.14,0,0,0,.3-.8,1.61,1.61,0,0,0-.3-.9,1.09,1.09,0,0,0-.9-.4H61.4Z"/><path d="M74.7,197.07v3.2H67.2v-13.4h7.5V190H70.2v2h3.6v3H70.2v2.2Z"/><path d="M73.9,196.37l2.8-.7a1.75,1.75,0,0,0,1.8,1.6c.8,0,1.2-.3,1.2-.8a1.08,1.08,0,0,0-.3-.7,1.78,1.78,0,0,0-1-.4c-1.8-.4-2.9-1-3.4-1.8a5,5,0,0,1-.8-2.6,4.63,4.63,0,0,1,1.1-3.2,4,4,0,0,1,3.1-1.3c2,0,3.3,1.1,4,3.3l-2.5,1a1.62,1.62,0,0,0-1.6-1.4c-.7,0-1,.3-1,.8a1.42,1.42,0,0,0,.2.6,3.55,3.55,0,0,0,.9.4,13.38,13.38,0,0,1,2.6.9,3.53,3.53,0,0,1,1.3,1.4,4.42,4.42,0,0,1,.5,2.2,4.14,4.14,0,0,1-1.2,3.3,4.38,4.38,0,0,1-3.2,1.3C75.9,200.47,74.4,199.07,73.9,196.37Z"/><path d="M87.2,190.07v10.2H84.3v-10.2H82.2v-3.2h7v3.2Z"/><path d="M97.3,195.07l2.8.2a6.46,6.46,0,0,1-1.3,3.8,3.89,3.89,0,0,1-2.8,1.3,4,4,0,0,1-3.3-1.8,9.58,9.58,0,0,1-1.3-5,9.17,9.17,0,0,1,1.2-5.1,3.55,3.55,0,0,1,3.3-1.9,3.5,3.5,0,0,1,3.1,1.5,6.89,6.89,0,0,1,1.2,3.9l-2.9.2a4.06,4.06,0,0,0-.4-1.9,1.15,1.15,0,0,0-.9-.6c-1,0-1.4,1.3-1.4,3.9a7.77,7.77,0,0,0,.4,3,1.17,1.17,0,0,0,1.1.8C96.8,197.37,97.2,196.57,97.3,195.07Z"/><path d="M104.6,200.47a3.9,3.9,0,0,1-3.4-1.9,10.27,10.27,0,0,1,0-10,4.18,4.18,0,0,1,5.6-1.4,3.25,3.25,0,0,1,1.3,1.3,8.61,8.61,0,0,1,1.3,4.9,9,9,0,0,1-1.3,5.1A4.32,4.32,0,0,1,104.6,200.47Zm0-3.1a1.17,1.17,0,0,0,1.1-.9,9.26,9.26,0,0,0,.3-3.3c0-2.3-.5-3.5-1.4-3.5s-1.5,1.3-1.5,4c0,2.5.5,3.7,1.5,3.7Z"/><path d="M116.6,197v3.3h-7v-13.4h3.1V197Z"/><path d="M123.6,197v3.3h-7v-13.4h3.1V197Z"/><path d="M129.2,200.27l-.6-2.6h-2.7l-.6,2.6h-2.5l3.1-13.4h3.2l3.1,13.4Zm-2.8-5.6H128l-.8-3.9Z"/><path d="M132.2,200.27v-13.4h5.1a2.39,2.39,0,0,1,2.3,1.1,4.2,4.2,0,0,1,.7,2.4,3.66,3.66,0,0,1-.4,1.8,2.37,2.37,0,0,1-1.3,1.1c1.3.4,1.9,1.5,1.9,3.1a5.19,5.19,0,0,1-.7,2.7c-.5.8-1.4,1.2-2.9,1.2ZM135,192h1.4a.91.91,0,0,0,.8-.4,1.88,1.88,0,0,0,.2-.8c0-.8-.3-1.1-1-1.1H135Zm0,5.3h1.5a.91.91,0,0,0,.8-.4,1.14,1.14,0,0,0,.3-.8,1.61,1.61,0,0,0-.3-.9,1.09,1.09,0,0,0-.9-.4H135Z"/><path d="M145.1,200.47a3.9,3.9,0,0,1-3.4-1.9,10.27,10.27,0,0,1,0-10,4.18,4.18,0,0,1,5.6-1.4,3.25,3.25,0,0,1,1.3,1.3,8.61,8.61,0,0,1,1.3,4.9,9,9,0,0,1-1.3,5.1A4.06,4.06,0,0,1,145.1,200.47Zm0-3.1a1.17,1.17,0,0,0,1.1-.9,9.26,9.26,0,0,0,.3-3.3c0-2.3-.5-3.5-1.4-3.5s-1.5,1.3-1.5,4c0,2.5.5,3.7,1.5,3.7Z"/><path d="M159,200.27h-3.4l-1.5-5.1h-1v5.1H150v-13.4h5.2a3.17,3.17,0,0,1,2.7,1.1,3.76,3.76,0,0,1,.9,2.9,4.48,4.48,0,0,1-.4,2,3.64,3.64,0,0,1-1.4,1.6Zm-5.8-8h1.3a1.4,1.4,0,0,0,.9-.3,1.8,1.8,0,0,0,.4-.9c0-.9-.4-1.3-1.2-1.3h-1.4Z"/><path d="M165,200.27l-.6-2.6h-2.7l-.6,2.6h-2.5l3.1-13.4h3.2l3.1,13.4Zm-2.7-5.6h1.6l-.8-3.9Z"/><path d="M171.5,190.07v10.2h-2.9v-10.2h-2.1v-3.2h7v3.2Z"/><path d="M176.5,186.77v13.4h-3.1v-13.4Z"/><path d="M181.5,200.47a3.9,3.9,0,0,1-3.4-1.9,10.27,10.27,0,0,1,0-10,4,4,0,0,1,3.5-2,3.9,3.9,0,0,1,3.4,1.9,8.61,8.61,0,0,1,1.3,4.9,9,9,0,0,1-1.3,5.1A4.29,4.29,0,0,1,181.5,200.47Zm0-3.1a1.17,1.17,0,0,0,1.1-.9,9.26,9.26,0,0,0,.3-3.3c0-2.3-.5-3.5-1.4-3.5s-1.5,1.3-1.5,4c.1,2.5.6,3.7,1.5,3.7Z"/><path d="M195.1,200.27h-2.5l-2.7-5.9a23.29,23.29,0,0,1-1.1-2.8,16.35,16.35,0,0,1,.2,2.2v6.5h-2.5v-13.4h2.9l2.3,4.9a20.29,20.29,0,0,1,1.1,2.6,20.55,20.55,0,0,1-.2-3.5v-4h2.5Z"/><path d="M206.1,197.07v3.2h-7.5v-13.4h7.5V190h-4.5v2h3.6v3h-3.6v2.2Z"/><path d="M214.9,186.77l-3.1,13.4h-3.1l-3.2-13.4h3.2l1.6,7.3c.1.4.2.9.3,1.3l1.9-8.6Z"/><path d="M222.3,197.07v3.2h-7.5v-13.4h7.5V190h-4.5v2h3.6v3h-3.6v2.2Z"/><path d="M231.4,200.27H228l-1.5-5.1h-1v5.1h-3.1v-13.4h5.2a3.17,3.17,0,0,1,2.7,1.1,4.27,4.27,0,0,1,1,2.9,4.48,4.48,0,0,1-.4,2,3.64,3.64,0,0,1-1.4,1.6Zm-5.8-8h1.3a1.4,1.4,0,0,0,.9-.3,1.8,1.8,0,0,0,.4-.9c0-.9-.4-1.3-1.2-1.3h-1.4Z"/><path d="M61.8,92.57V64H70a8.72,8.72,0,0,1,8,4.3,19.14,19.14,0,0,1,2.7,9.9,17.53,17.53,0,0,1-2.9,10.4,8.77,8.77,0,0,1-7.4,4ZM68.3,86H70q1.65,0,2.7-2.1a12.78,12.78,0,0,0,1.1-5.8,14.36,14.36,0,0,0-1-5.4,3.11,3.11,0,0,0-2.8-2.3H68.3Z"/><path d="M90.5,93a8.6,8.6,0,0,1-7.3-4c-1.9-2.7-2.8-6.2-2.8-10.7a18.88,18.88,0,0,1,2.7-10.6A8.64,8.64,0,0,1,95,64.77a9,9,0,0,1,2.8,2.7c1.9,2.6,2.8,6.1,2.8,10.5s-.9,8.2-2.8,10.9A8.82,8.82,0,0,1,90.5,93Zm0-6.5a2.55,2.55,0,0,0,2.4-1.9,24.15,24.15,0,0,0,.7-7.1c0-5-1-7.5-3-7.4s-3.2,2.8-3.2,8.5c-.1,5.3,1,7.9,3.1,7.9Z"/><path d="M98.9,84.27l6-1.5c.5,2.3,1.8,3.5,3.9,3.5,1.6,0,2.5-.6,2.5-1.8a1.82,1.82,0,0,0-.6-1.4,5.15,5.15,0,0,0-2-.9c-3.7-1-6.1-2.2-7.2-3.8a9.58,9.58,0,0,1-1.6-5.5,9.87,9.87,0,0,1,2.3-6.8,8.27,8.27,0,0,1,6.6-2.7c4.3,0,7.2,2.3,8.6,7l-5.4,2.3c-.6-1.9-1.7-2.9-3.4-2.9q-2.1,0-2.1,1.8a1.35,1.35,0,0,0,.5,1.2,4.55,4.55,0,0,0,1.9.8,31.33,31.33,0,0,1,5.4,1.9,6.86,6.86,0,0,1,2.7,2.9,10,10,0,0,1,1.1,4.8,9.56,9.56,0,0,1-2.6,7,9.27,9.27,0,0,1-6.9,2.7C103.3,93,100.1,90.07,98.9,84.27Z"/><path d="M140.1,85.67v6.8h-16V64h16v6.6h-9.6v4.2h7.7v6.3h-7.7v4.7Z"/><path d="M151.8,92.67a8.55,8.55,0,0,1-9.5-3.8c-1.9-2.7-2.8-6.2-2.8-10.6a18.88,18.88,0,0,1,2.7-10.6,8.64,8.64,0,0,1,11.9-2.9,10.26,10.26,0,0,1,2.8,2.7c1.9,2.6,2.8,6.1,2.8,10.5,0,5.3-1.3,9.4-3.8,12.2.2.8.9,1.2,2,1.2a5.66,5.66,0,0,0,1.8-.3v6.5a24.52,24.52,0,0,1-2.7.2,5,5,0,0,1-3.1-1C152.9,96.17,152.2,94.77,151.8,92.67Zm-2.2-6.2a2.46,2.46,0,0,0,2.4-1.9,24.15,24.15,0,0,0,.7-7.1c0-5-1-7.5-3-7.4s-3.2,2.8-3.2,8.5c0,5.3,1,7.9,3.1,7.9Z"/><path d="M177.5,64v18.9c0,3.6-.8,6.2-2.4,7.7a8.05,8.05,0,0,1-6.1,2.3,8.74,8.74,0,0,1-6.4-2.3c-1.6-1.5-2.4-4-2.4-7.4V64h6.6v18.4a5.25,5.25,0,0,0,.6,3,2.25,2.25,0,0,0,2,.9,2.64,2.64,0,0,0,1.9-.7,2.37,2.37,0,0,0,.9-1.5,18.21,18.21,0,0,0,.1-3.3V64Z"/><path d="M185.3,64v28.6h-6.5V64Z"/><path d="M184.7,84.27l6-1.5c.5,2.3,1.8,3.5,3.9,3.5,1.6,0,2.5-.6,2.5-1.8a1.82,1.82,0,0,0-.6-1.4,5.15,5.15,0,0,0-2-.9c-3.7-1-6.1-2.2-7.2-3.8a9.58,9.58,0,0,1-1.6-5.5,9.46,9.46,0,0,1,2.3-6.7,8.27,8.27,0,0,1,6.6-2.7c4.3,0,7.2,2.3,8.6,7l-5.4,2.2c-.6-1.9-1.7-2.9-3.4-2.9q-2.1,0-2.1,1.8a1.66,1.66,0,0,0,.5,1.2,4.55,4.55,0,0,0,1.9.8,36.18,36.18,0,0,1,5.5,2,6.86,6.86,0,0,1,2.7,2.9,11.25,11.25,0,0,1,1.1,4.8,9.56,9.56,0,0,1-2.6,7,9.27,9.27,0,0,1-6.9,2.7C189.1,93,185.9,90.07,184.7,84.27Z"/></g></svg>